<?xml version="1.0" encoding="utf-8"?>
<!-- Generator: Adobe Illustrator 24.0.0, SVG Export Plug-In . SVG Version: 6.00 Build 0)  -->
<svg version="1.1" xmlns="http://www.w3.org/2000/svg" xmlns:xlink="http://www.w3.org/1999/xlink" x="0px" y="0px"
	 viewBox="0 0 387.31 136.49" style="enable-background:new 0 0 387.31 136.49;" xml:space="preserve">
<style type="text/css">
	.st0{fill:none;stroke:#000000;stroke-width:0.5;stroke-linecap:square;stroke-miterlimit:10;}
	.st1{fill:none;stroke:#BF530A;stroke-linecap:round;stroke-miterlimit:10;stroke-dasharray:3,3;}
	.st2{fill:none;stroke:#00437C;stroke-linecap:round;stroke-miterlimit:10;}
	.st3{fill:none;stroke:#00437C;stroke-miterlimit:10;stroke-dasharray:3,1,0.75,1;}
	.st4{fill:none;stroke:#BF530A;stroke-linecap:round;stroke-miterlimit:10;}
	.st5{fill:none;stroke:#BF530A;stroke-linecap:round;stroke-miterlimit:10;stroke-dasharray:0.5,3;}
	.st6{fill:none;stroke:#00437C;stroke-linecap:round;stroke-miterlimit:10;stroke-dasharray:0.4789,2.8737;}
	.st7{fill:none;stroke:#00437C;stroke-linecap:round;stroke-miterlimit:10;stroke-dasharray:0.4793,2.8759;}
	.st8{fill:none;stroke:#00437C;stroke-linecap:round;stroke-miterlimit:10;stroke-dasharray:0.4826,2.8955;}
	.st9{fill:none;stroke:#00437C;stroke-linecap:round;stroke-miterlimit:10;stroke-dasharray:0.4832,2.899;}
	.st10{fill:none;stroke:#00437C;stroke-linecap:round;stroke-miterlimit:10;stroke-dasharray:0.482,2.8922;}
	.st11{fill:none;stroke:#00437C;stroke-linecap:round;stroke-miterlimit:10;stroke-dasharray:0.477,2.8621;}
	.st12{fill:none;stroke:#00437C;stroke-linecap:round;stroke-miterlimit:10;stroke-dasharray:0.4772,2.8629;}
	.st13{fill:none;stroke:#00437C;stroke-linecap:round;stroke-miterlimit:10;stroke-dasharray:0.4786,2.8717;}
	.st14{fill:none;stroke:#000000;stroke-width:0.5;stroke-miterlimit:10;}
</style>
<g id="new_graph">
	<g>
		<line class="st0" x1="12.55" y1="123.46" x2="379.03" y2="123.46"/>
		<g>
			<g>
				<line class="st0" x1="18.62" y1="123.46" x2="18.62" y2="120.48"/>
				<line class="st0" x1="38.66" y1="123.46" x2="38.66" y2="120.48"/>
				<line class="st0" x1="58.7" y1="123.46" x2="58.7" y2="120.48"/>
				<line class="st0" x1="78.75" y1="123.46" x2="78.75" y2="120.48"/>
				<line class="st0" x1="98.79" y1="123.46" x2="98.79" y2="120.48"/>
				<line class="st0" x1="118.83" y1="123.46" x2="118.83" y2="120.48"/>
				<line class="st0" x1="138.88" y1="123.46" x2="138.88" y2="120.48"/>
				<line class="st0" x1="158.92" y1="123.46" x2="158.92" y2="120.48"/>
				<line class="st0" x1="178.96" y1="123.46" x2="178.96" y2="120.48"/>
				<line class="st0" x1="199.01" y1="123.46" x2="199.01" y2="120.48"/>
				<line class="st0" x1="219.05" y1="123.46" x2="219.05" y2="120.48"/>
				<line class="st0" x1="239.1" y1="123.46" x2="239.1" y2="120.48"/>
				<line class="st0" x1="259.14" y1="123.46" x2="259.14" y2="120.48"/>
				<line class="st0" x1="279.18" y1="123.46" x2="279.18" y2="120.48"/>
				<line class="st0" x1="299.23" y1="123.46" x2="299.23" y2="120.48"/>
				<line class="st0" x1="319.27" y1="123.46" x2="319.27" y2="120.48"/>
				<line class="st0" x1="339.31" y1="123.46" x2="339.31" y2="120.48"/>
				<line class="st0" x1="359.36" y1="123.46" x2="359.36" y2="120.48"/>
				<line class="st0" x1="379.4" y1="123.46" x2="379.4" y2="120.48"/>
			</g>
			<g>
			</g>
		</g>
	</g>
	<g>
		<g>
			<g>
				<path d="M4.55,123.31c0-1.27,0.08-2.97,1.68-2.97s1.68,1.56,1.68,2.97c0,1.22-0.08,2.92-1.68,2.92S4.55,124.68,4.55,123.31z
					 M6.23,125.69c0.9,0,0.95-1.17,0.95-2.38c0-1.27-0.05-2.43-0.95-2.43c-0.9,0-0.95,1.16-0.95,2.43
					C5.28,124.53,5.33,125.69,6.23,125.69z"/>
			</g>
			<g>
				<path d="M1.05,106.39c0.74-0.04,1.41-0.12,1.46-0.95H3v5.78h-0.7v-4.34H1.05V106.39z"/>
				<path d="M4.55,108.42c0-1.27,0.08-2.97,1.68-2.97s1.68,1.56,1.68,2.97c0,1.22-0.08,2.92-1.68,2.92S4.55,109.79,4.55,108.42z
					 M6.23,110.8c0.9,0,0.95-1.17,0.95-2.38c0-1.27-0.05-2.43-0.95-2.43c-0.9,0-0.95,1.16-0.95,2.43
					C5.28,109.63,5.33,110.8,6.23,110.8z"/>
			</g>
			<g>
				<path d="M3.72,96.34H0.43c0-1.08,0.62-1.81,1.27-2.37l0.48-0.4c0.47-0.4,0.78-0.75,0.78-1.39c0-0.49-0.22-1.04-0.86-1.04
					c-0.91,0-0.93,0.92-0.93,1.25H0.44c0-1.08,0.47-1.84,1.67-1.84c1.36,0,1.58,1.04,1.58,1.54c0,0.87-0.37,1.36-1.03,1.9
					l-0.83,0.71c-0.32,0.27-0.55,0.6-0.64,0.99h2.53V96.34z"/>
				<path d="M4.55,93.53c0-1.27,0.08-2.97,1.68-2.97s1.68,1.56,1.68,2.97c0,1.22-0.08,2.92-1.68,2.92S4.55,94.9,4.55,93.53z
					 M6.23,95.91c0.9,0,0.95-1.17,0.95-2.38c0-1.27-0.05-2.43-0.95-2.43c-0.9,0-0.95,1.16-0.95,2.43
					C5.28,94.75,5.33,95.91,6.23,95.91z"/>
			</g>
			<g>
				<path d="M1.54,78.19h0.37c0.62,0,0.9-0.44,0.9-1.02c0-0.52-0.2-0.96-0.77-0.96c-0.76,0-0.85,0.71-0.85,1.13H0.46
					c0-0.98,0.47-1.67,1.56-1.67c1.23,0,1.51,0.85,1.51,1.5c0,0.59-0.29,1.08-0.91,1.24v0.02c0.67,0.13,1.09,0.54,1.09,1.35
					c0,1.05-0.54,1.79-1.67,1.79c-1.58,0-1.67-1.35-1.67-1.61v-0.07H1.1c0,0.53,0.27,1.14,0.94,1.14c0.43,0,0.94-0.21,0.94-1.19
					c0-0.69-0.33-1.1-1.06-1.1H1.54V78.19z"/>
				<path d="M4.55,78.64c0-1.27,0.08-2.97,1.68-2.97s1.68,1.56,1.68,2.97c0,1.22-0.08,2.92-1.68,2.92S4.55,80.01,4.55,78.64z
					 M6.23,81.02c0.9,0,0.95-1.17,0.95-2.38c0-1.27-0.05-2.43-0.95-2.43c-0.9,0-0.95,1.16-0.95,2.43
					C5.28,79.85,5.33,81.02,6.23,81.02z"/>
			</g>
			<g>
				<path d="M2.38,60.78h0.7v3.8h0.67v0.59H3.08v1.4h-0.7v-1.4H0.25v-0.65L2.38,60.78z M0.88,64.57h1.5V61.9H2.36L0.88,64.57z"/>
				<path d="M4.55,63.75c0-1.27,0.08-2.97,1.68-2.97s1.68,1.56,1.68,2.97c0,1.22-0.08,2.92-1.68,2.92S4.55,65.12,4.55,63.75z
					 M6.23,66.13c0.9,0,0.95-1.17,0.95-2.38c0-1.27-0.05-2.43-0.95-2.43c-0.9,0-0.95,1.16-0.95,2.43
					C5.28,64.96,5.33,66.13,6.23,66.13z"/>
			</g>
			<g>
				<path d="M0.85,46h2.63v0.64H1.4l-0.23,1.67l0.02,0.02c0.24-0.29,0.63-0.43,1.03-0.43c0.89,0,1.48,0.69,1.48,1.9
					c0,1.08-0.48,1.98-1.71,1.98c-1.4,0-1.61-1.13-1.61-1.6H1.1c0,0.3,0.12,1.06,0.9,1.06c0.83,0,0.96-0.91,0.96-1.5
					c0-0.64-0.24-1.31-0.98-1.31c-0.51,0-0.83,0.42-0.83,0.56l-0.63-0.03L0.85,46z"/>
				<path d="M4.55,48.86c0-1.27,0.08-2.97,1.68-2.97s1.68,1.56,1.68,2.97c0,1.22-0.08,2.92-1.68,2.92S4.55,50.23,4.55,48.86z
					 M6.23,51.24c0.9,0,0.95-1.17,0.95-2.38c0-1.27-0.05-2.43-0.95-2.43c-0.9,0-0.95,1.16-0.95,2.43
					C5.28,50.07,5.33,51.24,6.23,51.24z"/>
			</g>
			<g>
				<path d="M2.86,32.38c0-0.49-0.27-0.85-0.77-0.85c-0.97,0-1.04,1.44-1.04,1.74v0.46h0.02c0.11-0.22,0.48-0.64,1.12-0.64
					c1.02,0,1.54,0.75,1.54,1.83c0,1.12-0.57,1.98-1.66,1.98c-1.63,0-1.75-1.54-1.75-2.74C0.31,32.82,0.39,31,2.1,31
					c1.36,0,1.49,1.12,1.49,1.39H2.86z M2.06,36.35c0.73,0,0.93-0.73,0.93-1.34s-0.16-1.34-0.93-1.34s-0.93,0.73-0.93,1.34
					S1.33,36.35,2.06,36.35z"/>
				<path d="M4.55,33.97c0-1.27,0.08-2.97,1.68-2.97s1.68,1.56,1.68,2.97c0,1.22-0.08,2.92-1.68,2.92S4.55,35.34,4.55,33.97z
					 M6.23,36.35c0.9,0,0.95-1.17,0.95-2.38c0-1.27-0.05-2.43-0.95-2.43c-0.9,0-0.95,1.16-0.95,2.43
					C5.28,35.18,5.33,36.35,6.23,36.35z"/>
			</g>
			<g>
				<path d="M0.49,16.22h3.36v0.6c-0.32,0.42-0.79,1.11-1.16,1.98c-0.37,0.89-0.7,1.9-0.81,3.09H1.07c0.11-0.88,0.35-1.77,0.72-2.63
					c0.36-0.86,0.82-1.66,1.4-2.4H0.49V16.22z"/>
				<path d="M4.55,19.08c0-1.27,0.08-2.97,1.68-2.97s1.68,1.56,1.68,2.97c0,1.22-0.08,2.92-1.68,2.92S4.55,20.45,4.55,19.08z
					 M6.23,21.46c0.9,0,0.95-1.17,0.95-2.38c0-1.27-0.05-2.43-0.95-2.43c-0.9,0-0.95,1.16-0.95,2.43
					C5.28,20.29,5.33,21.46,6.23,21.46z"/>
			</g>
			<g>
				<path d="M1.39,3.92C0.79,3.68,0.53,3.3,0.53,2.68c0-0.94,0.57-1.47,1.51-1.47c0.94,0,1.5,0.53,1.5,1.47c0,0.62-0.26,1-0.86,1.23
					C3.37,4.14,3.72,4.63,3.72,5.4c0,0.76-0.37,1.71-1.69,1.71c-1.32,0-1.69-0.95-1.69-1.71C0.35,4.63,0.7,4.14,1.39,3.92z
					 M2.04,6.57c0.68,0,0.96-0.51,0.96-1.19S2.72,4.18,2.04,4.18c-0.68,0-0.96,0.51-0.96,1.19S1.35,6.57,2.04,6.57z M1.26,2.7
					c0,0.55,0.23,0.95,0.77,0.95c0.53,0,0.77-0.4,0.77-0.95c0-0.55-0.24-0.95-0.77-0.95C1.49,1.75,1.26,2.14,1.26,2.7z"/>
				<path d="M4.55,4.18c0-1.27,0.08-2.97,1.68-2.97s1.68,1.56,1.68,2.97c0,1.22-0.08,2.92-1.68,2.92S4.55,5.56,4.55,4.18z
					 M6.23,6.57c0.9,0,0.95-1.17,0.95-2.38c0-1.27-0.05-2.43-0.95-2.43c-0.9,0-0.95,1.16-0.95,2.43C5.28,5.4,5.33,6.57,6.23,6.57z"
					/>
			</g>
		</g>
		<line class="st0" x1="12.55" y1="123.46" x2="12.55" y2="4.34"/>
		<g>
			<g>
				<line class="st0" x1="12.86" y1="108.57" x2="16.82" y2="108.57"/>
				<line class="st0" x1="12.86" y1="93.68" x2="16.82" y2="93.68"/>
				<line class="st0" x1="12.86" y1="78.79" x2="16.82" y2="78.79"/>
				<line class="st0" x1="12.86" y1="63.9" x2="16.82" y2="63.9"/>
				<line class="st0" x1="12.86" y1="49.01" x2="16.82" y2="49.01"/>
				<line class="st0" x1="12.86" y1="34.12" x2="16.82" y2="34.12"/>
				<line class="st0" x1="12.86" y1="19.23" x2="16.82" y2="19.23"/>
				<line class="st0" x1="12.86" y1="4.34" x2="16.82" y2="4.34"/>
			</g>
			<g>
			</g>
		</g>
	</g>
	<g>
		<g>
			<g>
				<line class="st1" x1="158.92" y1="117.21" x2="138.88" y2="118.55"/>
				<line class="st1" x1="178.96" y1="115.87" x2="158.92" y2="117.21"/>
				<line class="st1" x1="199.01" y1="114.53" x2="178.96" y2="115.87"/>
				<line class="st1" x1="219.05" y1="112.89" x2="199.01" y2="114.53"/>
				<line class="st1" x1="239.1" y1="111.25" x2="219.05" y2="112.89"/>
				<line class="st1" x1="259.14" y1="109.61" x2="239.1" y2="111.25"/>
				<line class="st1" x1="279.18" y1="108.72" x2="259.14" y2="109.61"/>
				<line class="st1" x1="299.23" y1="107.68" x2="279.18" y2="108.72"/>
				<line class="st1" x1="319.27" y1="106.78" x2="299.23" y2="107.68"/>
				<line class="st1" x1="339.31" y1="105.89" x2="319.27" y2="106.78"/>
				<line class="st1" x1="359.36" y1="103.95" x2="339.31" y2="105.89"/>
				<line class="st1" x1="379.4" y1="102.91" x2="359.36" y2="103.95"/>
			</g>
		</g>
		<g>
			<g>
				<line class="st2" x1="38.66" y1="107.53" x2="18.62" y2="111.1"/>
				<line class="st2" x1="58.7" y1="103.8" x2="38.66" y2="107.53"/>
				<line class="st2" x1="78.75" y1="100.23" x2="58.7" y2="103.8"/>
				<line class="st2" x1="98.79" y1="95.61" x2="78.75" y2="100.23"/>
				<line class="st2" x1="118.83" y1="90.85" x2="98.79" y2="95.61"/>
				<line class="st2" x1="138.88" y1="86.23" x2="118.83" y2="90.85"/>
				<line class="st2" x1="158.92" y1="79.83" x2="138.88" y2="86.23"/>
				<line class="st2" x1="178.96" y1="73.43" x2="158.92" y2="79.83"/>
				<line class="st2" x1="199.01" y1="67.02" x2="178.96" y2="73.43"/>
				<line class="st2" x1="219.05" y1="62.41" x2="199.01" y2="67.02"/>
				<line class="st2" x1="239.1" y1="57.79" x2="219.05" y2="62.41"/>
				<line class="st2" x1="259.14" y1="53.03" x2="239.1" y2="57.79"/>
				<line class="st2" x1="279.18" y1="48.41" x2="259.14" y2="53.03"/>
				<line class="st2" x1="299.23" y1="43.79" x2="279.18" y2="48.41"/>
				<line class="st2" x1="319.27" y1="39.18" x2="299.23" y2="43.79"/>
				<line class="st2" x1="339.31" y1="33.52" x2="319.27" y2="39.18"/>
				<line class="st2" x1="359.36" y1="23.99" x2="339.31" y2="33.52"/>
				<line class="st2" x1="379.4" y1="15.21" x2="359.36" y2="23.99"/>
			</g>
		</g>
		<g>
			<g>
				<line class="st3" x1="38.66" y1="98.59" x2="18.62" y2="100.23"/>
				<line class="st3" x1="58.7" y1="96.95" x2="38.66" y2="98.59"/>
				<line class="st3" x1="78.75" y1="95.17" x2="58.7" y2="96.95"/>
				<line class="st3" x1="98.79" y1="93.83" x2="78.75" y2="95.17"/>
				<line class="st3" x1="118.83" y1="92.49" x2="98.79" y2="93.83"/>
				<line class="st3" x1="138.88" y1="91.15" x2="118.83" y2="92.49"/>
				<line class="st3" x1="158.92" y1="91.15" x2="138.88" y2="91.15"/>
				<line class="st3" x1="178.96" y1="91.3" x2="158.92" y2="91.15"/>
				<line class="st3" x1="199.01" y1="91.3" x2="178.96" y2="91.3"/>
				<line class="st3" x1="219.05" y1="88.76" x2="199.01" y2="91.3"/>
				<line class="st3" x1="239.1" y1="86.08" x2="219.05" y2="88.76"/>
				<line class="st3" x1="259.14" y1="83.55" x2="239.1" y2="86.08"/>
				<line class="st3" x1="279.18" y1="80.13" x2="259.14" y2="83.55"/>
				<line class="st3" x1="299.23" y1="76.7" x2="279.18" y2="80.13"/>
				<line class="st3" x1="319.27" y1="73.28" x2="299.23" y2="76.7"/>
				<line class="st3" x1="339.31" y1="68.07" x2="319.27" y2="73.28"/>
				<line class="st3" x1="359.36" y1="62.71" x2="339.31" y2="68.07"/>
				<line class="st3" x1="379.4" y1="56.9" x2="359.36" y2="62.71"/>
			</g>
		</g>
		<g>
			<g>
				<line class="st4" x1="38.66" y1="117.35" x2="18.62" y2="117.65"/>
				<line class="st4" x1="58.7" y1="116.91" x2="38.66" y2="117.35"/>
				<line class="st4" x1="78.75" y1="116.61" x2="58.7" y2="116.91"/>
				<line class="st4" x1="98.79" y1="116.01" x2="78.75" y2="116.61"/>
				<line class="st4" x1="118.83" y1="115.27" x2="98.79" y2="116.01"/>
				<line class="st4" x1="138.88" y1="114.53" x2="118.83" y2="115.27"/>
				<line class="st4" x1="158.92" y1="113.78" x2="138.88" y2="114.53"/>
				<line class="st4" x1="178.96" y1="112.89" x2="158.92" y2="113.78"/>
				<line class="st4" x1="199.01" y1="111.99" x2="178.96" y2="112.89"/>
				<line class="st4" x1="219.05" y1="111.55" x2="199.01" y2="111.99"/>
				<line class="st4" x1="239.1" y1="111.1" x2="219.05" y2="111.55"/>
				<line class="st4" x1="259.14" y1="110.65" x2="239.1" y2="111.1"/>
				<line class="st4" x1="279.18" y1="109.91" x2="259.14" y2="110.65"/>
				<line class="st4" x1="299.23" y1="109.31" x2="279.18" y2="109.91"/>
				<line class="st4" x1="319.27" y1="108.57" x2="299.23" y2="109.31"/>
				<line class="st4" x1="339.31" y1="107.68" x2="319.27" y2="108.57"/>
				<line class="st4" x1="359.36" y1="106.78" x2="339.31" y2="107.68"/>
				<line class="st4" x1="379.4" y1="105.74" x2="359.36" y2="106.78"/>
			</g>
		</g>
		<g>
			<g>
				<line class="st5" x1="38.66" y1="119.29" x2="18.62" y2="120.33"/>
				<line class="st5" x1="58.7" y1="118.25" x2="38.66" y2="119.29"/>
				<line class="st5" x1="78.75" y1="117.21" x2="58.7" y2="118.25"/>
				<line class="st5" x1="98.79" y1="114.97" x2="78.75" y2="117.21"/>
				<line class="st5" x1="118.83" y1="112.74" x2="98.79" y2="114.97"/>
				<line class="st5" x1="138.88" y1="110.5" x2="118.83" y2="112.74"/>
				<line class="st5" x1="158.92" y1="109.16" x2="138.88" y2="110.5"/>
				<line class="st5" x1="178.96" y1="107.82" x2="158.92" y2="109.16"/>
				<line class="st5" x1="199.01" y1="106.48" x2="178.96" y2="107.82"/>
				<line class="st5" x1="219.05" y1="106.04" x2="199.01" y2="106.48"/>
				<line class="st5" x1="239.1" y1="105.74" x2="219.05" y2="106.04"/>
				<line class="st5" x1="259.14" y1="105.44" x2="239.1" y2="105.74"/>
				<line class="st5" x1="279.18" y1="104.55" x2="259.14" y2="105.44"/>
				<line class="st5" x1="299.23" y1="103.65" x2="279.18" y2="104.55"/>
				<line class="st5" x1="319.27" y1="102.76" x2="299.23" y2="103.65"/>
				<line class="st5" x1="339.31" y1="101.42" x2="319.27" y2="102.76"/>
				<line class="st5" x1="359.36" y1="100.08" x2="339.31" y2="101.42"/>
				<line class="st5" x1="379.4" y1="98.74" x2="359.36" y2="100.08"/>
			</g>
		</g>
		<g>
			<g>
				<g>
					<g>
						<line class="st2" x1="38.66" y1="61.96" x2="38.41" y2="61.94"/>
						<line class="st6" x1="35.55" y1="61.66" x2="20.3" y2="60.19"/>
						<line class="st2" x1="18.87" y1="60.05" x2="18.62" y2="60.03"/>
					</g>
				</g>
				<g>
					<g>
						<line class="st2" x1="58.7" y1="64.05" x2="58.45" y2="64.02"/>
						<line class="st7" x1="55.59" y1="63.72" x2="40.34" y2="62.14"/>
						<line class="st2" x1="38.91" y1="61.99" x2="38.66" y2="61.96"/>
					</g>
				</g>
				<g>
					<g>
						<line class="st2" x1="78.75" y1="65.98" x2="78.5" y2="65.96"/>
						<line class="st6" x1="75.64" y1="65.68" x2="60.38" y2="64.21"/>
						<line class="st2" x1="58.95" y1="64.07" x2="58.7" y2="64.05"/>
					</g>
				</g>
				<g>
					<g>
						<line class="st2" x1="98.79" y1="69.11" x2="98.54" y2="69.07"/>
						<line class="st8" x1="95.68" y1="68.62" x2="80.42" y2="66.24"/>
						<line class="st2" x1="78.99" y1="66.02" x2="78.75" y2="65.98"/>
					</g>
				</g>
				<g>
					<g>
						<line class="st2" x1="118.83" y1="72.38" x2="118.59" y2="72.34"/>
						<line class="st9" x1="115.73" y1="71.88" x2="100.47" y2="69.38"/>
						<line class="st2" x1="99.04" y1="69.15" x2="98.79" y2="69.11"/>
					</g>
				</g>
				<g>
					<g>
						<line class="st2" x1="138.88" y1="75.51" x2="138.63" y2="75.47"/>
						<line class="st8" x1="135.77" y1="75.03" x2="120.51" y2="72.65"/>
						<line class="st2" x1="119.08" y1="72.42" x2="118.83" y2="72.38"/>
					</g>
				</g>
				<g>
					<g>
						<line class="st2" x1="158.92" y1="78.64" x2="158.67" y2="78.6"/>
						<line class="st8" x1="155.81" y1="78.15" x2="140.56" y2="75.77"/>
						<line class="st2" x1="139.12" y1="75.55" x2="138.88" y2="75.51"/>
					</g>
				</g>
				<g>
					<g>
						<line class="st2" x1="178.96" y1="81.91" x2="178.72" y2="81.87"/>
						<line class="st9" x1="175.86" y1="81.41" x2="160.6" y2="78.91"/>
						<line class="st2" x1="159.17" y1="78.68" x2="158.92" y2="78.64"/>
					</g>
				</g>
				<g>
					<g>
						<line class="st2" x1="199.01" y1="85.04" x2="198.76" y2="85"/>
						<line class="st8" x1="195.9" y1="84.56" x2="180.64" y2="82.18"/>
						<line class="st2" x1="179.21" y1="81.95" x2="178.96" y2="81.91"/>
					</g>
				</g>
				<g>
					<g>
						<line class="st2" x1="219.05" y1="88.02" x2="218.8" y2="87.98"/>
						<line class="st10" x1="215.94" y1="87.56" x2="200.69" y2="85.29"/>
						<line class="st2" x1="199.26" y1="85.08" x2="199.01" y2="85.04"/>
					</g>
				</g>
				<g>
					<g>
						<line class="st2" x1="239.1" y1="91" x2="238.85" y2="90.96"/>
						<line class="st10" x1="235.99" y1="90.54" x2="220.73" y2="88.27"/>
						<line class="st2" x1="219.3" y1="88.06" x2="219.05" y2="88.02"/>
					</g>
				</g>
				<g>
					<g>
						<line class="st2" x1="259.14" y1="94.12" x2="258.89" y2="94.09"/>
						<line class="st8" x1="256.03" y1="93.64" x2="240.77" y2="91.26"/>
						<line class="st2" x1="239.34" y1="91.04" x2="239.1" y2="91"/>
					</g>
				</g>
				<g>
					<g>
						<line class="st2" x1="279.18" y1="94.87" x2="278.93" y2="94.86"/>
						<line class="st11" x1="276.07" y1="94.75" x2="260.82" y2="94.19"/>
						<line class="st2" x1="259.39" y1="94.13" x2="259.14" y2="94.12"/>
					</g>
				</g>
				<g>
					<g>
						<line class="st2" x1="299.23" y1="95.61" x2="298.98" y2="95.6"/>
						<line class="st11" x1="296.12" y1="95.5" x2="280.86" y2="94.93"/>
						<line class="st2" x1="279.43" y1="94.88" x2="279.18" y2="94.87"/>
					</g>
				</g>
				<g>
					<g>
						<line class="st2" x1="319.27" y1="96.51" x2="319.02" y2="96.5"/>
						<line class="st12" x1="316.16" y1="96.37" x2="300.91" y2="95.69"/>
						<line class="st2" x1="299.48" y1="95.63" x2="299.23" y2="95.61"/>
					</g>
				</g>
				<g>
					<g>
						<line class="st2" x1="339.31" y1="98.29" x2="339.06" y2="98.27"/>
						<line class="st13" x1="336.2" y1="98.02" x2="320.95" y2="96.66"/>
						<line class="st2" x1="319.52" y1="96.53" x2="319.27" y2="96.51"/>
					</g>
				</g>
				<g>
					<g>
						<line class="st2" x1="359.36" y1="100.08" x2="359.11" y2="100.06"/>
						<line class="st13" x1="356.25" y1="99.8" x2="340.99" y2="98.44"/>
						<line class="st2" x1="339.56" y1="98.32" x2="339.31" y2="98.29"/>
					</g>
				</g>
				<g>
					<g>
						<line class="st2" x1="379.4" y1="101.87" x2="379.15" y2="101.85"/>
						<line class="st13" x1="376.29" y1="101.59" x2="361.04" y2="100.23"/>
						<line class="st2" x1="359.61" y1="100.1" x2="359.36" y2="100.08"/>
					</g>
				</g>
			</g>
		</g>
	</g>
	<g>
		<g>
		</g>
		<g>
		</g>
		<g>
		</g>
		<g>
		</g>
		<g>
		</g>
		<g>
		</g>
	</g>
	<g>
		<g>
			<path d="M375.1,133.7h-3.26c0-1.08,0.61-1.81,1.26-2.37l0.48-0.4c0.47-0.4,0.77-0.75,0.77-1.39c0-0.49-0.22-1.04-0.85-1.04
				c-0.9,0-0.92,0.92-0.92,1.25h-0.73c0-1.08,0.46-1.84,1.66-1.84c1.35,0,1.57,1.04,1.57,1.54c0,0.87-0.37,1.36-1.02,1.9l-0.82,0.71
				c-0.32,0.27-0.54,0.6-0.63,0.99h2.5V133.7z"/>
			<path d="M375.76,130.89c0-1.27,0.08-2.97,1.66-2.97s1.66,1.56,1.66,2.97c0,1.22-0.08,2.92-1.66,2.92S375.76,132.26,375.76,130.89
				z M377.42,133.27c0.89,0,0.94-1.17,0.94-2.38c0-1.27-0.05-2.43-0.94-2.43s-0.94,1.16-0.94,2.43
				C376.48,132.1,376.53,133.27,377.42,133.27z"/>
			<path d="M379.95,128.86c0.73-0.04,1.4-0.12,1.44-0.95h0.49v5.78h-0.69v-4.34h-1.24V128.86z"/>
			<path d="M384.69,130.62c-0.59-0.24-0.85-0.61-0.85-1.23c0-0.94,0.56-1.47,1.49-1.47s1.49,0.53,1.49,1.47c0,0.62-0.25,1-0.85,1.23
				c0.68,0.22,1.03,0.72,1.03,1.49c0,0.76-0.36,1.71-1.67,1.71s-1.67-0.95-1.67-1.71C383.66,131.34,384,130.84,384.69,130.62z
				 M385.33,133.27c0.68,0,0.95-0.51,0.95-1.19s-0.27-1.19-0.95-1.19s-0.95,0.51-0.95,1.19S384.65,133.27,385.33,133.27z
				 M384.56,129.4c0,0.55,0.23,0.95,0.77,0.95c0.53,0,0.77-0.4,0.77-0.95c0-0.55-0.24-0.95-0.77-0.95
				C384.8,128.45,384.56,128.85,384.56,129.4z"/>
		</g>
		<g>
		</g>
		<g>
		</g>
		<g>
			<path d="M314.97,133.7h-3.26c0-1.08,0.61-1.81,1.26-2.37l0.48-0.4c0.47-0.4,0.77-0.75,0.77-1.39c0-0.49-0.22-1.04-0.85-1.04
				c-0.9,0-0.92,0.92-0.92,1.25h-0.73c0-1.08,0.46-1.84,1.66-1.84c1.35,0,1.57,1.04,1.57,1.54c0,0.87-0.37,1.36-1.02,1.9l-0.82,0.71
				c-0.32,0.27-0.54,0.6-0.63,0.99h2.5V133.7z"/>
			<path d="M315.63,130.89c0-1.27,0.08-2.97,1.66-2.97s1.66,1.56,1.66,2.97c0,1.22-0.08,2.92-1.66,2.92S315.63,132.26,315.63,130.89
				z M317.29,133.27c0.89,0,0.94-1.17,0.94-2.38c0-1.27-0.05-2.43-0.94-2.43s-0.94,1.16-0.94,2.43
				C316.35,132.1,316.4,133.27,317.29,133.27z"/>
			<path d="M319.82,128.86c0.73-0.04,1.4-0.12,1.44-0.95h0.49v5.78h-0.69v-4.34h-1.24V128.86z"/>
			<path d="M324.02,128.03h2.6v0.64h-2.05l-0.23,1.67l0.02,0.02c0.24-0.29,0.63-0.43,1.02-0.43c0.88,0,1.47,0.69,1.47,1.9
				c0,1.08-0.48,1.98-1.7,1.98c-1.38,0-1.6-1.13-1.6-1.6h0.72c0,0.3,0.12,1.06,0.89,1.06c0.82,0,0.96-0.91,0.96-1.5
				c0-0.64-0.24-1.31-0.97-1.31c-0.5,0-0.82,0.42-0.82,0.56l-0.63-0.03L324.02,128.03z"/>
		</g>
		<g>
		</g>
		<g>
		</g>
		<g>
			<path d="M254.84,133.7h-3.26c0-1.08,0.61-1.81,1.26-2.37l0.48-0.4c0.47-0.4,0.77-0.75,0.77-1.39c0-0.49-0.22-1.04-0.85-1.04
				c-0.9,0-0.92,0.92-0.92,1.25h-0.73c0-1.08,0.46-1.84,1.66-1.84c1.35,0,1.57,1.04,1.57,1.54c0,0.87-0.37,1.36-1.02,1.9l-0.82,0.71
				c-0.32,0.27-0.54,0.6-0.63,0.99h2.5V133.7z"/>
			<path d="M255.5,130.89c0-1.27,0.08-2.97,1.66-2.97s1.66,1.56,1.66,2.97c0,1.22-0.08,2.92-1.66,2.92S255.5,132.26,255.5,130.89z
				 M257.16,133.27c0.89,0,0.94-1.17,0.94-2.38c0-1.27-0.05-2.43-0.94-2.43s-0.94,1.16-0.94,2.43
				C256.22,132.1,256.27,133.27,257.16,133.27z"/>
			<path d="M259.69,128.86c0.73-0.04,1.4-0.12,1.44-0.95h0.49v5.78h-0.69v-4.34h-1.24V128.86z"/>
			<path d="M266.7,133.7h-3.26c0-1.08,0.61-1.81,1.26-2.37l0.48-0.4c0.47-0.4,0.77-0.75,0.77-1.39c0-0.49-0.22-1.04-0.85-1.04
				c-0.9,0-0.92,0.92-0.92,1.25h-0.73c0-1.08,0.46-1.84,1.66-1.84c1.35,0,1.57,1.04,1.57,1.54c0,0.87-0.37,1.36-1.02,1.9l-0.82,0.71
				c-0.32,0.27-0.54,0.6-0.63,0.99h2.5V133.7z"/>
		</g>
		<g>
		</g>
		<g>
		</g>
		<g>
			<path d="M194.71,133.7h-3.26c0-1.08,0.61-1.81,1.26-2.37l0.48-0.4c0.47-0.4,0.77-0.75,0.77-1.39c0-0.49-0.22-1.04-0.85-1.04
				c-0.9,0-0.92,0.92-0.92,1.25h-0.73c0-1.08,0.46-1.84,1.66-1.84c1.35,0,1.57,1.04,1.57,1.54c0,0.87-0.37,1.36-1.02,1.9l-0.82,0.71
				c-0.32,0.27-0.54,0.6-0.63,0.99h2.5V133.7z"/>
			<path d="M195.37,130.89c0-1.27,0.08-2.97,1.66-2.97s1.66,1.56,1.66,2.97c0,1.22-0.08,2.92-1.66,2.92S195.37,132.26,195.37,130.89
				z M197.03,133.27c0.89,0,0.94-1.17,0.94-2.38c0-1.27-0.05-2.43-0.94-2.43s-0.94,1.16-0.94,2.43
				C196.09,132.1,196.14,133.27,197.03,133.27z"/>
			<path d="M199.32,130.89c0-1.27,0.08-2.97,1.66-2.97s1.66,1.56,1.66,2.97c0,1.22-0.08,2.92-1.66,2.92S199.32,132.26,199.32,130.89
				z M200.98,133.27c0.89,0,0.94-1.17,0.94-2.38c0-1.27-0.05-2.43-0.94-2.43s-0.94,1.16-0.94,2.43
				C200.05,132.1,200.1,133.27,200.98,133.27z"/>
			<path d="M204.11,132.42c0,0.48,0.27,0.85,0.77,0.85c0.96,0,1.03-1.44,1.03-1.74v-0.46h-0.02c-0.11,0.22-0.48,0.64-1.11,0.64
				c-1.01,0-1.52-0.75-1.52-1.83c0-1.12,0.56-1.98,1.65-1.98c1.62,0,1.73,1.55,1.73,2.74c0,1.32-0.08,3.15-1.77,3.15
				c-1.35,0-1.48-1.12-1.48-1.39H204.11z M204.9,128.45c-0.73,0-0.92,0.73-0.92,1.34s0.16,1.34,0.92,1.34s0.92-0.73,0.92-1.34
				S205.62,128.45,204.9,128.45z"/>
		</g>
		<g>
		</g>
		<g>
		</g>
		<g>
			<path d="M134.58,133.7h-3.26c0-1.08,0.61-1.81,1.26-2.37l0.48-0.4c0.47-0.4,0.77-0.75,0.77-1.39c0-0.49-0.22-1.04-0.85-1.04
				c-0.9,0-0.92,0.92-0.92,1.25h-0.73c0-1.08,0.46-1.84,1.66-1.84c1.35,0,1.57,1.04,1.57,1.54c0,0.87-0.37,1.36-1.02,1.9l-0.82,0.71
				c-0.32,0.27-0.54,0.6-0.63,0.99h2.5V133.7z"/>
			<path d="M135.24,130.89c0-1.27,0.08-2.97,1.66-2.97s1.66,1.56,1.66,2.97c0,1.22-0.08,2.92-1.66,2.92S135.24,132.26,135.24,130.89
				z M136.9,133.27c0.89,0,0.94-1.17,0.94-2.38c0-1.27-0.05-2.43-0.94-2.43s-0.94,1.16-0.94,2.43
				C135.96,132.1,136.01,133.27,136.9,133.27z"/>
			<path d="M139.19,130.89c0-1.27,0.08-2.97,1.66-2.97s1.66,1.56,1.66,2.97c0,1.22-0.08,2.92-1.66,2.92S139.19,132.26,139.19,130.89
				z M140.85,133.27c0.89,0,0.94-1.17,0.94-2.38c0-1.27-0.05-2.43-0.94-2.43s-0.94,1.16-0.94,2.43
				C139.91,132.1,139.96,133.27,140.85,133.27z"/>
			<path d="M145.64,129.3c0-0.49-0.27-0.85-0.77-0.85c-0.96,0-1.03,1.44-1.03,1.74v0.46h0.02c0.11-0.22,0.48-0.64,1.11-0.64
				c1.01,0,1.52,0.75,1.52,1.83c0,1.12-0.56,1.98-1.65,1.98c-1.62,0-1.73-1.54-1.73-2.74c0-1.32,0.08-3.15,1.77-3.15
				c1.35,0,1.48,1.12,1.48,1.39H145.64z M144.85,133.27c0.73,0,0.92-0.73,0.92-1.34s-0.16-1.34-0.92-1.34s-0.92,0.73-0.92,1.34
				S144.12,133.27,144.85,133.27z"/>
		</g>
		<g>
		</g>
		<g>
		</g>
		<g>
			<path d="M74.45,133.7h-3.26c0-1.08,0.61-1.81,1.26-2.37l0.48-0.4c0.47-0.4,0.77-0.75,0.77-1.39c0-0.49-0.22-1.04-0.85-1.04
				c-0.9,0-0.92,0.92-0.92,1.25H71.2c0-1.08,0.46-1.84,1.66-1.84c1.35,0,1.57,1.04,1.57,1.54c0,0.87-0.37,1.36-1.02,1.9l-0.82,0.71
				c-0.32,0.27-0.54,0.6-0.63,0.99h2.5V133.7z"/>
			<path d="M75.11,130.89c0-1.27,0.08-2.97,1.67-2.97c1.58,0,1.66,1.56,1.66,2.97c0,1.22-0.08,2.92-1.66,2.92
				C75.19,133.81,75.11,132.26,75.11,130.89z M76.77,133.27c0.89,0,0.94-1.17,0.94-2.38c0-1.27-0.05-2.43-0.94-2.43
				c-0.89,0-0.94,1.16-0.94,2.43C75.83,132.1,75.88,133.27,76.77,133.27z"/>
			<path d="M79.06,130.89c0-1.27,0.08-2.97,1.66-2.97s1.66,1.56,1.66,2.97c0,1.22-0.08,2.92-1.66,2.92S79.06,132.26,79.06,130.89z
				 M80.72,133.27c0.89,0,0.94-1.17,0.94-2.38c0-1.27-0.05-2.43-0.94-2.43s-0.94,1.16-0.94,2.43
				C79.78,132.1,79.83,133.27,80.72,133.27z"/>
			<path d="M84.18,130.44h0.36c0.62,0,0.89-0.44,0.89-1.02c0-0.52-0.2-0.96-0.76-0.96c-0.76,0-0.84,0.71-0.84,1.13h-0.72
				c0-0.98,0.47-1.67,1.55-1.67c1.22,0,1.5,0.85,1.5,1.5c0,0.59-0.29,1.08-0.91,1.24v0.02c0.66,0.13,1.08,0.54,1.08,1.35
				c0,1.05-0.54,1.79-1.66,1.79c-1.57,0-1.66-1.35-1.66-1.61v-0.07h0.73c0,0.53,0.27,1.14,0.93,1.14c0.43,0,0.93-0.21,0.93-1.19
				c0-0.69-0.33-1.1-1.05-1.1h-0.37V130.44z"/>
		</g>
		<g>
		</g>
		<g>
		</g>
		<g>
			<path d="M14.32,133.7h-3.26c0-1.08,0.61-1.81,1.26-2.37l0.48-0.4c0.47-0.4,0.77-0.75,0.77-1.39c0-0.49-0.22-1.04-0.85-1.04
				c-0.9,0-0.92,0.92-0.92,1.25h-0.72c0-1.08,0.46-1.84,1.66-1.84c1.35,0,1.57,1.04,1.57,1.54c0,0.87-0.37,1.36-1.02,1.9l-0.82,0.71
				c-0.32,0.27-0.54,0.6-0.63,0.99h2.5V133.7z"/>
			<path d="M14.97,130.89c0-1.27,0.08-2.97,1.66-2.97s1.66,1.56,1.66,2.97c0,1.22-0.08,2.92-1.66,2.92S14.97,132.26,14.97,130.89z
				 M16.64,133.27c0.89,0,0.94-1.17,0.94-2.38c0-1.27-0.05-2.43-0.94-2.43s-0.94,1.16-0.94,2.43
				C15.7,132.1,15.75,133.27,16.64,133.27z"/>
			<path d="M18.93,130.89c0-1.27,0.08-2.97,1.66-2.97s1.66,1.56,1.66,2.97c0,1.22-0.08,2.92-1.66,2.92S18.93,132.26,18.93,130.89z
				 M20.59,133.27c0.89,0,0.94-1.17,0.94-2.38c0-1.27-0.05-2.43-0.94-2.43s-0.94,1.16-0.94,2.43
				C19.65,132.1,19.7,133.27,20.59,133.27z"/>
			<path d="M22.88,130.89c0-1.27,0.08-2.97,1.66-2.97s1.66,1.56,1.66,2.97c0,1.22-0.08,2.92-1.66,2.92S22.88,132.26,22.88,130.89z
				 M24.55,133.27c0.89,0,0.94-1.17,0.94-2.38c0-1.27-0.05-2.43-0.94-2.43s-0.94,1.16-0.94,2.43
				C23.61,132.1,23.66,133.27,24.55,133.27z"/>
		</g>
	</g>
</g>
<g id="axis">
	<g>
		<g id="XMLID_13_">
			<path d="M28.53,55.54c-0.06,0.95-0.43,1.81-1.52,1.81c-1.42,0-1.61-1.34-1.61-2.6s0.23-2.6,1.61-2.6c1.02,0,1.45,0.57,1.48,1.55
				h-0.64c-0.02-0.57-0.2-1.05-0.83-1.05c-0.85,0-0.97,0.94-0.97,2.09c0,1.16,0.11,2.09,0.97,2.09c0.75,0,0.85-0.7,0.88-1.31H28.53z
				"/>
			<path d="M29.08,52.25h0.59v1.67h0.01c0.15-0.31,0.57-0.53,0.9-0.53c0.97,0,0.97,0.74,0.97,1.19v2.66h-0.59v-2.59
				c0-0.29-0.02-0.76-0.55-0.76c-0.32,0-0.74,0.22-0.74,0.76v2.59h-0.59V52.25z"/>
			<path d="M32.81,55.44c0,0.58,0,1.44,0.72,1.44c0.56,0,0.64-0.58,0.64-0.87h0.59c0,0.4-0.23,1.33-1.26,1.33
				c-0.92,0-1.3-0.63-1.3-1.93c0-0.93,0.18-2.02,1.34-2.02c1.15,0,1.25,1,1.25,1.81v0.24H32.81z M34.17,54.98v-0.2
				c0-0.42-0.13-0.92-0.65-0.92c-0.62,0-0.69,0.76-0.69,0.98v0.14H34.17z"/>
			<path d="M37.22,54.64c0-0.36-0.15-0.78-0.59-0.78c-0.36,0-0.74,0.18-0.74,1.55c0,0.48,0.01,1.47,0.71,1.47
				c0.5,0,0.62-0.53,0.62-0.94h0.59c0,0.59-0.29,1.4-1.23,1.4c-0.92,0-1.3-0.63-1.3-1.93c0-0.93,0.18-2.02,1.34-2.02
				c1.03,0,1.2,0.81,1.2,1.24H37.22z"/>
			<path d="M41.21,57.25h-0.69l-1.04-1.86L39,55.98v1.27h-0.59v-5H39v2.98h0.01l1.32-1.73h0.69l-1.14,1.42L41.21,57.25z"/>
			<path d="M43.13,54.6c0-0.48-0.13-0.74-0.55-0.74c-0.19,0-0.61,0.05-0.61,0.57c0,0.45,0.46,0.53,0.92,0.68
				c0.45,0.15,0.92,0.31,0.92,1.06c0,0.78-0.51,1.18-1.21,1.18c-1.27,0-1.29-0.95-1.29-1.33h0.59c0,0.46,0.12,0.87,0.7,0.87
				c0.19,0,0.62-0.09,0.62-0.62c0-0.5-0.47-0.62-0.92-0.76c-0.46-0.15-0.92-0.29-0.92-1.06c0-0.7,0.55-1.04,1.2-1.04
				c1.09,0,1.14,0.76,1.14,1.2H43.13z"/>
		</g>
	</g>
	<g>
		<g id="XMLID_11_">
			<path d="M323.43,6.35h0.8l1.65,4.17h0.01V6.35h0.62v5h-0.85l-1.6-4.05h-0.01v4.05h-0.62V6.35z"/>
			<path d="M328.47,7.49c1.09,0,1.35,0.92,1.35,1.98s-0.27,1.97-1.35,1.97c-1.08,0-1.35-0.92-1.35-1.97S327.39,7.49,328.47,7.49z
				 M329.21,9.47c0-0.81-0.11-1.51-0.75-1.51c-0.6,0-0.72,0.7-0.72,1.51s0.12,1.51,0.72,1.51C329.08,10.98,329.21,10.28,329.21,9.47
				z"/>
			<path d="M330.41,7.59h0.56v0.44h0.01c0.16-0.34,0.55-0.54,0.91-0.54c0.99,0,0.99,0.74,0.99,1.19v2.66h-0.59V8.75
				c0-0.29-0.02-0.76-0.55-0.76C331.42,8,331,8.22,331,8.75v2.59h-0.59V7.59z"/>
			<path d="M333.64,9.08h1.71v0.55h-1.71V9.08z"/>
			<path d="M336.11,7.59h0.56v0.46h0.01c0.08-0.28,0.41-0.56,0.81-0.56c0.89,0,1.23,0.79,1.23,1.91c0,0.85-0.25,2.04-1.23,2.04
				c-0.34,0-0.65-0.2-0.78-0.52h-0.01v1.66h-0.59V7.59z M337.42,10.94c0.54,0,0.69-0.57,0.69-1.54c0-0.83-0.15-1.4-0.69-1.4
				c-0.64,0-0.76,0.61-0.76,1.47C336.67,10.2,336.79,10.94,337.42,10.94z"/>
			<path d="M339.35,7.59h0.59v0.56h0.01c0.17-0.36,0.39-0.66,0.81-0.66c0.12,0,0.2,0.01,0.26,0.04v0.57
				c-0.06-0.01-0.13-0.03-0.32-0.03c-0.29,0-0.77,0.27-0.77,0.89v2.37h-0.59V7.59z"/>
			<path d="M341.92,9.54c0,0.58,0,1.44,0.72,1.44c0.56,0,0.64-0.58,0.64-0.87h0.59c0,0.4-0.23,1.33-1.26,1.33
				c-0.92,0-1.3-0.63-1.3-1.93c0-0.93,0.18-2.02,1.34-2.02c1.15,0,1.25,1,1.25,1.81v0.24H341.92z M343.28,9.08v-0.2
				c0-0.42-0.13-0.92-0.65-0.92c-0.62,0-0.69,0.76-0.69,0.98v0.14H343.28z"/>
			<path d="M344.53,7.59h0.56v0.46h0.01c0.08-0.28,0.41-0.56,0.81-0.56c0.89,0,1.23,0.79,1.23,1.91c0,0.85-0.25,2.04-1.23,2.04
				c-0.34,0-0.65-0.2-0.78-0.52h-0.01v1.66h-0.59V7.59z M345.85,10.94c0.54,0,0.69-0.57,0.69-1.54c0-0.83-0.15-1.4-0.69-1.4
				c-0.64,0-0.76,0.61-0.76,1.47C345.09,10.2,345.21,10.94,345.85,10.94z"/>
			<path d="M347.69,8.73c0-0.85,0.36-1.23,1.26-1.23c1.14,0,1.14,0.69,1.14,1.08v2.09c0,0.16-0.01,0.3,0.18,0.3
				c0.08,0,0.11-0.01,0.14-0.04v0.42c-0.05,0.01-0.2,0.04-0.34,0.04c-0.22,0-0.51,0-0.53-0.48h-0.01c-0.19,0.34-0.55,0.54-0.9,0.54
				c-0.7,0-1.02-0.42-1.02-1.09c0-0.53,0.22-0.89,0.71-1.04l0.79-0.24c0.43-0.13,0.43-0.26,0.43-0.57c0-0.36-0.21-0.55-0.6-0.55
				c-0.64,0-0.64,0.59-0.64,0.74v0.04H347.69z M349.5,9.3c-0.23,0.23-0.74,0.27-1,0.44c-0.19,0.12-0.29,0.27-0.29,0.59
				c0,0.39,0.13,0.64,0.53,0.64c0.39,0,0.76-0.32,0.76-0.71V9.3z"/>
			<path d="M350.92,6.35h0.59v0.67h-0.59V6.35z M350.92,7.59h0.59v3.75h-0.59V7.59z"/>
			<path d="M354.78,11.35h-0.56v-0.46h-0.01c-0.08,0.28-0.41,0.56-0.81,0.56c-0.89,0-1.23-0.8-1.23-1.97c0-0.78,0.12-1.98,1.18-1.98
				c0.34,0,0.69,0.2,0.83,0.53h0.01V6.35h0.59V11.35z M353.47,10.94c0.64,0,0.76-0.61,0.76-1.47c0-0.73-0.12-1.47-0.76-1.47
				c-0.54,0-0.69,0.57-0.69,1.47S352.94,10.94,353.47,10.94z"/>
			<path d="M359.7,11.35h-0.56v-0.46h-0.01c-0.08,0.28-0.41,0.56-0.81,0.56c-0.89,0-1.23-0.8-1.23-1.97c0-0.78,0.12-1.98,1.18-1.98
				c0.34,0,0.69,0.2,0.83,0.53h0.01V6.35h0.59V11.35z M358.4,10.94c0.64,0,0.76-0.61,0.76-1.47c0-0.73-0.12-1.47-0.76-1.47
				c-0.54,0-0.69,0.57-0.69,1.47S357.86,10.94,358.4,10.94z"/>
			<path d="M360.96,9.54c0,0.58,0,1.44,0.72,1.44c0.56,0,0.64-0.58,0.64-0.87h0.59c0,0.4-0.23,1.33-1.26,1.33
				c-0.92,0-1.3-0.63-1.3-1.93c0-0.93,0.18-2.02,1.34-2.02c1.15,0,1.25,1,1.25,1.81v0.24H360.96z M362.32,9.08v-0.2
				c0-0.42-0.13-0.92-0.65-0.92c-0.62,0-0.69,0.76-0.69,0.98v0.14H362.32z"/>
			<path d="M363.58,6.35h0.59v1.67h0.01c0.13-0.33,0.48-0.53,0.87-0.53c1.01,0,1.14,1.19,1.14,1.98c0,1.06-0.36,1.97-1.23,1.97
				c-0.41,0-0.74-0.28-0.81-0.56h-0.01v0.46h-0.56V6.35z M364.89,10.94c0.54,0,0.69-0.61,0.69-1.47c0-0.9-0.15-1.47-0.69-1.47
				c-0.64,0-0.76,0.74-0.76,1.47C364.13,10.23,364.25,10.94,364.89,10.94z"/>
			<path d="M366.86,6.35h0.59v0.67h-0.59V6.35z M366.86,7.59h0.59v3.75h-0.59V7.59z"/>
			<path d="M368.43,6.5h0.59v1.09h0.65v0.46h-0.65v2.41c0,0.3,0.08,0.42,0.39,0.42c0.13,0,0.2-0.01,0.26-0.02v0.48
				c-0.08,0.02-0.23,0.04-0.48,0.04c-0.62,0-0.76-0.25-0.76-0.74V8.05h-0.55V7.59h0.55V6.5z"/>
			<path d="M373.53,8.73c0-0.36-0.15-0.78-0.59-0.78c-0.36,0-0.74,0.18-0.74,1.55c0,0.48,0.01,1.47,0.71,1.47
				c0.5,0,0.62-0.53,0.62-0.94h0.59c0,0.59-0.29,1.4-1.23,1.4c-0.92,0-1.3-0.63-1.3-1.93c0-0.93,0.18-2.02,1.34-2.02
				c1.03,0,1.2,0.81,1.2,1.24H373.53z"/>
			<path d="M374.63,8.73c0-0.85,0.36-1.23,1.26-1.23c1.14,0,1.14,0.69,1.14,1.08v2.09c0,0.16-0.01,0.3,0.18,0.3
				c0.08,0,0.11-0.01,0.14-0.04v0.42c-0.05,0.01-0.2,0.04-0.34,0.04c-0.22,0-0.51,0-0.53-0.48h-0.01c-0.19,0.34-0.55,0.54-0.9,0.54
				c-0.7,0-1.02-0.42-1.02-1.09c0-0.53,0.22-0.89,0.71-1.04l0.79-0.24c0.43-0.13,0.43-0.26,0.43-0.57c0-0.36-0.21-0.55-0.6-0.55
				c-0.64,0-0.64,0.59-0.64,0.74v0.04H374.63z M376.45,9.3c-0.23,0.23-0.74,0.27-1,0.44c-0.19,0.12-0.29,0.27-0.29,0.59
				c0,0.39,0.13,0.64,0.53,0.64c0.39,0,0.76-0.32,0.76-0.71V9.3z"/>
			<path d="M377.83,7.59h0.59v0.56h0.01c0.17-0.36,0.39-0.66,0.81-0.66c0.12,0,0.2,0.01,0.26,0.04v0.57
				c-0.06-0.01-0.13-0.03-0.32-0.03c-0.29,0-0.77,0.27-0.77,0.89v2.37h-0.59V7.59z"/>
			<path d="M382.38,11.35h-0.56v-0.46h-0.01c-0.08,0.28-0.41,0.56-0.81,0.56c-0.89,0-1.23-0.8-1.23-1.97c0-0.78,0.12-1.98,1.18-1.98
				c0.34,0,0.69,0.2,0.83,0.53h0.01V6.35h0.59V11.35z M381.07,10.94c0.64,0,0.76-0.61,0.76-1.47c0-0.73-0.12-1.47-0.76-1.47
				c-0.54,0-0.69,0.57-0.69,1.47S380.53,10.94,381.07,10.94z"/>
			<path d="M384.76,8.69c0-0.48-0.13-0.74-0.55-0.74c-0.19,0-0.61,0.05-0.61,0.57c0,0.45,0.46,0.53,0.92,0.68
				c0.45,0.15,0.92,0.31,0.92,1.06c0,0.78-0.51,1.18-1.21,1.18c-1.27,0-1.29-0.95-1.29-1.33h0.59c0,0.46,0.12,0.87,0.7,0.87
				c0.19,0,0.62-0.09,0.62-0.62c0-0.5-0.47-0.62-0.92-0.76c-0.46-0.15-0.92-0.29-0.92-1.06c0-0.7,0.55-1.04,1.2-1.04
				c1.09,0,1.14,0.76,1.14,1.2H384.76z"/>
		</g>
	</g>
	<g>
		<g id="XMLID_10_">
			<path d="M215.83,115.17h1.27c0.43,0,1.55,0,1.55,1.44c0,0.93-0.59,1.45-1.44,1.45h-0.76v2.12h-0.62V115.17z M216.45,117.56h0.74
				c0.45,0,0.83-0.31,0.83-0.97c0-0.55-0.25-0.9-0.87-0.9h-0.69V117.56z"/>
			<path d="M219.18,116.42h0.59v0.56h0.01c0.17-0.36,0.39-0.66,0.81-0.66c0.12,0,0.2,0.01,0.26,0.04v0.57
				c-0.06-0.01-0.13-0.03-0.32-0.03c-0.29,0-0.77,0.27-0.77,0.89v2.37h-0.59V116.42z"/>
			<path d="M221.74,118.37c0,0.58,0,1.44,0.72,1.44c0.56,0,0.64-0.58,0.64-0.87h0.59c0,0.4-0.23,1.33-1.26,1.33
				c-0.92,0-1.3-0.63-1.3-1.93c0-0.93,0.18-2.02,1.34-2.02c1.15,0,1.25,1,1.25,1.81v0.24H221.74z M223.1,117.91v-0.2
				c0-0.42-0.13-0.92-0.65-0.92c-0.62,0-0.69,0.76-0.69,0.98v0.14H223.1z"/>
			<path d="M224.36,116.42h0.56v0.46h0.01c0.08-0.28,0.41-0.56,0.81-0.56c0.89,0,1.23,0.79,1.23,1.91c0,0.85-0.25,2.04-1.23,2.04
				c-0.34,0-0.65-0.2-0.78-0.52h-0.01v1.66h-0.59V116.42z M225.67,119.77c0.54,0,0.69-0.57,0.69-1.54c0-0.83-0.15-1.4-0.69-1.4
				c-0.64,0-0.76,0.61-0.76,1.47C224.91,119.03,225.03,119.77,225.67,119.77z"/>
			<path d="M227.51,117.56c0-0.85,0.36-1.23,1.26-1.23c1.14,0,1.14,0.69,1.14,1.08v2.09c0,0.16-0.01,0.3,0.18,0.3
				c0.08,0,0.11-0.01,0.14-0.04v0.42c-0.05,0.01-0.2,0.04-0.34,0.04c-0.22,0-0.51,0-0.53-0.48h-0.01c-0.19,0.34-0.55,0.54-0.9,0.54
				c-0.7,0-1.02-0.42-1.02-1.09c0-0.53,0.22-0.89,0.71-1.04l0.79-0.24c0.43-0.13,0.43-0.26,0.43-0.57c0-0.36-0.21-0.55-0.6-0.55
				c-0.64,0-0.64,0.59-0.64,0.74v0.04H227.51z M229.32,118.13c-0.23,0.23-0.74,0.27-1,0.44c-0.19,0.12-0.29,0.27-0.29,0.59
				c0,0.39,0.13,0.64,0.53,0.64c0.39,0,0.76-0.32,0.76-0.71V118.13z"/>
			<path d="M230.74,115.17h0.59v0.67h-0.59V115.17z M230.74,116.42h0.59v3.75h-0.59V116.42z"/>
			<path d="M234.61,120.17h-0.56v-0.46h-0.01c-0.08,0.28-0.41,0.56-0.81,0.56c-0.89,0-1.23-0.8-1.23-1.97
				c0-0.78,0.12-1.98,1.18-1.98c0.34,0,0.69,0.2,0.83,0.53h0.01v-1.67h0.59V120.17z M233.3,119.77c0.64,0,0.76-0.61,0.76-1.47
				c0-0.73-0.12-1.47-0.76-1.47c-0.54,0-0.69,0.57-0.69,1.47S232.76,119.77,233.3,119.77z"/>
			<path d="M239.53,120.17h-0.56v-0.46h-0.01c-0.08,0.28-0.41,0.56-0.81,0.56c-0.89,0-1.23-0.8-1.23-1.97
				c0-0.78,0.12-1.98,1.18-1.98c0.34,0,0.69,0.2,0.83,0.53h0.01v-1.67h0.59V120.17z M238.22,119.77c0.64,0,0.76-0.61,0.76-1.47
				c0-0.73-0.12-1.47-0.76-1.47c-0.54,0-0.69,0.57-0.69,1.47S237.68,119.77,238.22,119.77z"/>
			<path d="M240.79,118.37c0,0.58,0,1.44,0.72,1.44c0.56,0,0.64-0.58,0.64-0.87h0.59c0,0.4-0.23,1.33-1.26,1.33
				c-0.92,0-1.3-0.63-1.3-1.93c0-0.93,0.18-2.02,1.34-2.02c1.15,0,1.25,1,1.25,1.81v0.24H240.79z M242.15,117.91v-0.2
				c0-0.42-0.13-0.92-0.65-0.92c-0.62,0-0.69,0.76-0.69,0.98v0.14H242.15z"/>
			<path d="M243.4,115.17h0.59v1.67h0.01c0.13-0.33,0.48-0.53,0.87-0.53c1.01,0,1.14,1.19,1.14,1.98c0,1.06-0.36,1.97-1.23,1.97
				c-0.41,0-0.74-0.28-0.81-0.56h-0.01v0.46h-0.56V115.17z M244.71,119.77c0.54,0,0.69-0.61,0.69-1.47c0-0.9-0.15-1.47-0.69-1.47
				c-0.64,0-0.76,0.74-0.76,1.47C243.96,119.06,244.08,119.77,244.71,119.77z"/>
			<path d="M246.68,115.17h0.59v0.67h-0.59V115.17z M246.68,116.42h0.59v3.75h-0.59V116.42z"/>
			<path d="M248.25,115.33h0.59v1.09h0.65v0.46h-0.65v2.41c0,0.3,0.08,0.42,0.39,0.42c0.13,0,0.2-0.01,0.26-0.02v0.48
				c-0.08,0.02-0.23,0.04-0.48,0.04c-0.62,0-0.76-0.25-0.76-0.74v-2.59h-0.55v-0.46h0.55V115.33z"/>
			<path d="M253.35,117.56c0-0.36-0.15-0.78-0.59-0.78c-0.36,0-0.74,0.18-0.74,1.55c0,0.48,0.01,1.47,0.71,1.47
				c0.5,0,0.62-0.53,0.62-0.94h0.59c0,0.59-0.29,1.4-1.23,1.4c-0.92,0-1.3-0.63-1.3-1.93c0-0.93,0.18-2.02,1.34-2.02
				c1.03,0,1.2,0.81,1.2,1.24H253.35z"/>
			<path d="M254.46,117.56c0-0.85,0.36-1.23,1.26-1.23c1.14,0,1.14,0.69,1.14,1.08v2.09c0,0.16-0.01,0.3,0.18,0.3
				c0.08,0,0.11-0.01,0.14-0.04v0.42c-0.05,0.01-0.2,0.04-0.34,0.04c-0.22,0-0.51,0-0.53-0.48h-0.01c-0.19,0.34-0.55,0.54-0.9,0.54
				c-0.7,0-1.02-0.42-1.02-1.09c0-0.53,0.22-0.89,0.71-1.04l0.79-0.24c0.43-0.13,0.43-0.26,0.43-0.57c0-0.36-0.21-0.55-0.6-0.55
				c-0.64,0-0.64,0.59-0.64,0.74v0.04H254.46z M256.27,118.13c-0.23,0.23-0.74,0.27-1,0.44c-0.19,0.12-0.29,0.27-0.29,0.59
				c0,0.39,0.13,0.64,0.53,0.64c0.39,0,0.76-0.32,0.76-0.71V118.13z"/>
			<path d="M257.65,116.42h0.59v0.56h0.01c0.17-0.36,0.39-0.66,0.81-0.66c0.12,0,0.2,0.01,0.26,0.04v0.57
				c-0.06-0.01-0.13-0.03-0.32-0.03c-0.29,0-0.77,0.27-0.77,0.89v2.37h-0.59V116.42z"/>
			<path d="M262.2,120.17h-0.56v-0.46h-0.01c-0.08,0.28-0.41,0.56-0.81,0.56c-0.89,0-1.23-0.8-1.23-1.97c0-0.78,0.12-1.98,1.18-1.98
				c0.34,0,0.69,0.2,0.83,0.53h0.01v-1.67h0.59V120.17z M260.89,119.77c0.64,0,0.76-0.61,0.76-1.47c0-0.73-0.12-1.47-0.76-1.47
				c-0.54,0-0.69,0.57-0.69,1.47S260.35,119.77,260.89,119.77z"/>
			<path d="M264.58,117.52c0-0.48-0.13-0.74-0.55-0.74c-0.19,0-0.61,0.05-0.61,0.57c0,0.45,0.46,0.53,0.92,0.68
				c0.45,0.15,0.92,0.31,0.92,1.06c0,0.78-0.51,1.18-1.21,1.18c-1.27,0-1.29-0.95-1.29-1.33h0.59c0,0.46,0.12,0.87,0.7,0.87
				c0.19,0,0.62-0.09,0.62-0.62c0-0.5-0.47-0.62-0.92-0.76c-0.46-0.15-0.92-0.29-0.92-1.06c0-0.7,0.55-1.04,1.2-1.04
				c1.09,0,1.14,0.76,1.14,1.2H264.58z"/>
		</g>
	</g>
	<g>
		<g id="XMLID_9_">
			<path d="M336.72,87.52h0.83l1.34,5h-0.64l-0.36-1.37h-1.6l-0.37,1.37h-0.64L336.72,87.52z M336.42,90.64h1.34l-0.64-2.42h-0.01
				L336.42,90.64z"/>
			<path d="M342.3,90.8c-0.06,0.95-0.43,1.81-1.52,1.81c-1.42,0-1.61-1.34-1.61-2.6s0.23-2.6,1.61-2.6c1.02,0,1.45,0.57,1.48,1.55
				h-0.64c-0.02-0.57-0.2-1.05-0.83-1.05c-0.85,0-0.97,0.94-0.97,2.09c0,1.16,0.11,2.09,0.97,2.09c0.75,0,0.85-0.7,0.88-1.31H342.3z
				"/>
			<path d="M345.82,92.52h-0.62v-2.41h-1.72v2.41h-0.62v-5h0.62v2.04h1.72v-2.04h0.62V92.52z"/>
			<path d="M350.76,92.52h-0.56v-0.46h-0.01c-0.08,0.28-0.41,0.56-0.81,0.56c-0.89,0-1.23-0.8-1.23-1.97c0-0.78,0.12-1.98,1.18-1.98
				c0.34,0,0.69,0.2,0.83,0.53h0.01v-1.67h0.59V92.52z M349.45,92.11c0.64,0,0.76-0.61,0.76-1.47c0-0.73-0.12-1.47-0.76-1.47
				c-0.54,0-0.69,0.57-0.69,1.47S348.91,92.11,349.45,92.11z"/>
			<path d="M352.02,90.71c0,0.58,0,1.44,0.72,1.44c0.56,0,0.64-0.58,0.64-0.87h0.59c0,0.4-0.23,1.33-1.26,1.33
				c-0.92,0-1.3-0.63-1.3-1.93c0-0.93,0.18-2.02,1.34-2.02c1.15,0,1.25,1,1.25,1.81v0.24H352.02z M353.38,90.25v-0.2
				c0-0.42-0.13-0.92-0.65-0.92c-0.62,0-0.69,0.76-0.69,0.98v0.14H353.38z"/>
			<path d="M354.64,87.52h0.59v1.67h0.01c0.13-0.33,0.48-0.53,0.87-0.53c1.01,0,1.14,1.19,1.14,1.98c0,1.06-0.36,1.97-1.23,1.97
				c-0.41,0-0.74-0.28-0.81-0.56h-0.01v0.46h-0.56V87.52z M355.95,92.11c0.54,0,0.69-0.61,0.69-1.47c0-0.9-0.15-1.47-0.69-1.47
				c-0.64,0-0.76,0.74-0.76,1.47C355.19,91.41,355.31,92.11,355.95,92.11z"/>
			<path d="M357.91,87.52h0.59v0.67h-0.59V87.52z M357.91,88.77h0.59v3.75h-0.59V88.77z"/>
			<path d="M359.48,87.67h0.59v1.09h0.65v0.46h-0.65v2.41c0,0.3,0.08,0.42,0.39,0.42c0.13,0,0.2-0.01,0.26-0.02v0.48
				c-0.08,0.02-0.23,0.04-0.48,0.04c-0.62,0-0.76-0.25-0.76-0.74v-2.59h-0.55v-0.46h0.55V87.67z"/>
			<path d="M362.98,87.67h0.59v1.09h0.65v0.46h-0.65v2.41c0,0.3,0.08,0.42,0.39,0.42c0.13,0,0.2-0.01,0.26-0.02v0.48
				c-0.08,0.02-0.23,0.04-0.48,0.04c-0.62,0-0.76-0.25-0.76-0.74v-2.59h-0.55v-0.46h0.55V87.67z"/>
			<path d="M364.61,88.77h0.59v0.56h0.01c0.17-0.36,0.39-0.66,0.81-0.66c0.12,0,0.2,0.01,0.26,0.04v0.57
				c-0.06-0.01-0.13-0.03-0.32-0.03c-0.29,0-0.77,0.27-0.77,0.89v2.37h-0.59V88.77z"/>
			<path d="M366.59,89.9c0-0.85,0.36-1.23,1.26-1.23c1.14,0,1.14,0.69,1.14,1.08v2.09c0,0.16-0.01,0.3,0.18,0.3
				c0.08,0,0.11-0.01,0.14-0.04v0.42c-0.05,0.01-0.2,0.04-0.34,0.04c-0.22,0-0.51,0-0.53-0.48h-0.01c-0.19,0.34-0.55,0.54-0.9,0.54
				c-0.7,0-1.02-0.42-1.02-1.09c0-0.53,0.22-0.89,0.71-1.04l0.79-0.24c0.43-0.13,0.43-0.26,0.43-0.57c0-0.36-0.21-0.55-0.6-0.55
				c-0.64,0-0.64,0.59-0.64,0.74v0.04H366.59z M368.41,90.48c-0.23,0.23-0.74,0.27-1,0.44c-0.19,0.12-0.29,0.27-0.29,0.59
				c0,0.39,0.13,0.64,0.53,0.64c0.39,0,0.76-0.32,0.76-0.71V90.48z"/>
			<path d="M369.79,88.77h0.56v0.44h0.01c0.16-0.34,0.55-0.54,0.91-0.54c0.99,0,0.99,0.74,0.99,1.19v2.66h-0.59v-2.59
				c0-0.29-0.02-0.76-0.55-0.76c-0.32,0-0.74,0.22-0.74,0.76v2.59h-0.59V88.77z"/>
			<path d="M374.64,89.87c0-0.48-0.13-0.74-0.55-0.74c-0.19,0-0.61,0.05-0.61,0.57c0,0.45,0.46,0.53,0.92,0.68
				c0.45,0.15,0.92,0.31,0.92,1.06c0,0.78-0.51,1.18-1.21,1.18c-1.27,0-1.29-0.95-1.29-1.33h0.59c0,0.46,0.12,0.87,0.7,0.87
				c0.19,0,0.62-0.09,0.62-0.62c0-0.5-0.47-0.62-0.92-0.76c-0.46-0.15-0.92-0.29-0.92-1.06c0-0.7,0.55-1.04,1.2-1.04
				c1.09,0,1.14,0.76,1.14,1.2H374.64z"/>
			<path d="M376.06,89.23h-0.55v-0.46h0.55v-0.44c0-0.57,0.25-0.86,0.81-0.86h0.43v0.5h-0.27c-0.25,0-0.38,0.1-0.38,0.36v0.44h0.64
				v0.46h-0.64v3.29h-0.59V89.23z"/>
			<path d="M378.18,90.71c0,0.58,0,1.44,0.72,1.44c0.56,0,0.64-0.58,0.64-0.87h0.59c0,0.4-0.23,1.33-1.26,1.33
				c-0.92,0-1.3-0.63-1.3-1.93c0-0.93,0.18-2.02,1.34-2.02c1.15,0,1.25,1,1.25,1.81v0.24H378.18z M379.54,90.25v-0.2
				c0-0.42-0.13-0.92-0.65-0.92c-0.62,0-0.69,0.76-0.69,0.98v0.14H379.54z"/>
			<path d="M380.8,88.77h0.59v0.56h0.01c0.17-0.36,0.39-0.66,0.81-0.66c0.12,0,0.2,0.01,0.26,0.04v0.57
				c-0.06-0.01-0.13-0.03-0.32-0.03c-0.29,0-0.77,0.27-0.77,0.89v2.37h-0.59V88.77z"/>
			<path d="M384.48,89.87c0-0.48-0.13-0.74-0.55-0.74c-0.19,0-0.61,0.05-0.61,0.57c0,0.45,0.46,0.53,0.92,0.68
				c0.45,0.15,0.92,0.31,0.92,1.06c0,0.78-0.51,1.18-1.21,1.18c-1.27,0-1.29-0.95-1.29-1.33h0.59c0,0.46,0.12,0.87,0.7,0.87
				c0.19,0,0.62-0.09,0.62-0.62c0-0.5-0.47-0.62-0.92-0.76c-0.46-0.15-0.92-0.29-0.92-1.06c0-0.7,0.55-1.04,1.2-1.04
				c1.09,0,1.14,0.76,1.14,1.2H384.48z"/>
		</g>
	</g>
	<g>
		<g id="XMLID_8_">
			<path d="M335.15,110.25h0.83l1.34,5h-0.64l-0.36-1.37h-1.6l-0.37,1.37h-0.64L335.15,110.25z M334.84,113.38h1.34l-0.64-2.42
				h-0.01L334.84,113.38z"/>
			<path d="M340.73,113.54c-0.06,0.95-0.43,1.81-1.52,1.81c-1.42,0-1.61-1.34-1.61-2.6c0-1.26,0.23-2.6,1.61-2.6
				c1.02,0,1.45,0.57,1.48,1.55h-0.64c-0.02-0.57-0.2-1.05-0.83-1.05c-0.85,0-0.97,0.94-0.97,2.1c0,1.15,0.11,2.09,0.97,2.09
				c0.75,0,0.85-0.7,0.88-1.31H340.73z"/>
			<path d="M344.25,115.25h-0.62v-2.41h-1.72v2.41h-0.62v-5h0.62v2.04h1.72v-2.04h0.62V115.25z"/>
			<path d="M348.5,112.64c0-0.36-0.15-0.78-0.59-0.78c-0.36,0-0.74,0.18-0.74,1.55c0,0.48,0.01,1.47,0.71,1.47
				c0.5,0,0.62-0.53,0.62-0.94h0.59c0,0.59-0.29,1.4-1.23,1.4c-0.92,0-1.3-0.63-1.3-1.93c0-0.93,0.18-2.03,1.34-2.03
				c1.03,0,1.2,0.81,1.2,1.24H348.5z"/>
			<path d="M349.7,111.5h0.59v0.56h0.01c0.17-0.36,0.39-0.66,0.81-0.66c0.12,0,0.2,0.02,0.26,0.04v0.57
				c-0.06-0.01-0.13-0.03-0.32-0.03c-0.29,0-0.77,0.27-0.77,0.89v2.38h-0.59V111.5z"/>
			<path d="M352.26,113.45c0,0.58,0,1.44,0.72,1.44c0.56,0,0.64-0.58,0.64-0.87h0.59c0,0.4-0.23,1.33-1.26,1.33
				c-0.92,0-1.3-0.63-1.3-1.93c0-0.93,0.18-2.03,1.34-2.03c1.15,0,1.25,1,1.25,1.81v0.24H352.26z M353.62,112.98v-0.2
				c0-0.42-0.13-0.92-0.65-0.92c-0.62,0-0.69,0.76-0.69,0.98v0.14H353.62z"/>
			<path d="M357.35,115.25h-0.56v-0.46h-0.01c-0.08,0.28-0.41,0.56-0.81,0.56c-0.89,0-1.23-0.8-1.23-1.97
				c0-0.79,0.12-1.98,1.18-1.98c0.34,0,0.69,0.2,0.83,0.53h0.01v-1.67h0.59V115.25z M356.04,114.85c0.64,0,0.76-0.61,0.76-1.47
				c0-0.73-0.12-1.47-0.76-1.47c-0.54,0-0.69,0.57-0.69,1.47S355.5,114.85,356.04,114.85z"/>
			<path d="M358.15,110.25h0.59v0.67h-0.59V110.25z M358.15,111.5h0.59v3.75h-0.59V111.5z"/>
			<path d="M359.72,110.4h0.59v1.09h0.65v0.46h-0.65v2.41c0,0.3,0.08,0.42,0.39,0.42c0.13,0,0.2-0.01,0.26-0.02v0.48
				c-0.08,0.02-0.23,0.04-0.48,0.04c-0.62,0-0.76-0.25-0.76-0.74v-2.59h-0.55v-0.46h0.55V110.4z"/>
			<path d="M363.21,110.4h0.59v1.09h0.65v0.46h-0.65v2.41c0,0.3,0.08,0.42,0.39,0.42c0.13,0,0.2-0.01,0.26-0.02v0.48
				c-0.08,0.02-0.23,0.04-0.48,0.04c-0.62,0-0.76-0.25-0.76-0.74v-2.59h-0.55v-0.46h0.55V110.4z"/>
			<path d="M364.85,111.5h0.59v0.56h0.01c0.17-0.36,0.39-0.66,0.81-0.66c0.12,0,0.2,0.02,0.26,0.04v0.57
				c-0.06-0.01-0.13-0.03-0.32-0.03c-0.29,0-0.77,0.27-0.77,0.89v2.38h-0.59V111.5z"/>
			<path d="M366.83,112.63c0-0.85,0.36-1.23,1.26-1.23c1.14,0,1.14,0.69,1.14,1.08v2.09c0,0.16-0.01,0.3,0.18,0.3
				c0.08,0,0.11-0.01,0.14-0.04v0.42c-0.05,0.01-0.2,0.04-0.34,0.04c-0.22,0-0.51,0-0.53-0.48h-0.01c-0.19,0.34-0.55,0.54-0.9,0.54
				c-0.7,0-1.02-0.42-1.02-1.09c0-0.53,0.22-0.89,0.71-1.04l0.79-0.24c0.43-0.13,0.43-0.26,0.43-0.57c0-0.36-0.21-0.55-0.6-0.55
				c-0.64,0-0.64,0.6-0.64,0.74v0.04H366.83z M368.65,113.21c-0.23,0.23-0.74,0.27-1,0.44c-0.19,0.12-0.29,0.27-0.29,0.59
				c0,0.39,0.13,0.64,0.53,0.64c0.39,0,0.76-0.32,0.76-0.71V113.21z"/>
			<path d="M370.03,111.5h0.56v0.44h0.01c0.16-0.34,0.55-0.54,0.91-0.54c0.99,0,0.99,0.74,0.99,1.19v2.66h-0.59v-2.59
				c0-0.29-0.02-0.76-0.55-0.76c-0.32,0-0.74,0.22-0.74,0.76v2.59h-0.59V111.5z"/>
			<path d="M374.88,112.6c0-0.48-0.13-0.74-0.55-0.74c-0.19,0-0.61,0.05-0.61,0.57c0,0.45,0.46,0.53,0.92,0.68
				c0.45,0.15,0.92,0.31,0.92,1.06c0,0.78-0.51,1.18-1.21,1.18c-1.27,0-1.29-0.95-1.29-1.33h0.59c0,0.46,0.12,0.87,0.7,0.87
				c0.19,0,0.62-0.09,0.62-0.62c0-0.5-0.47-0.62-0.92-0.76c-0.46-0.15-0.92-0.29-0.92-1.06c0-0.7,0.55-1.04,1.2-1.04
				c1.09,0,1.14,0.76,1.14,1.2H374.88z"/>
			<path d="M376.3,111.96h-0.55v-0.46h0.55v-0.44c0-0.57,0.25-0.86,0.81-0.86h0.43v0.5h-0.27c-0.25,0-0.38,0.1-0.38,0.36v0.44h0.64
				v0.46h-0.64v3.29h-0.59V111.96z"/>
			<path d="M378.42,113.45c0,0.58,0,1.44,0.72,1.44c0.56,0,0.64-0.58,0.64-0.87h0.59c0,0.4-0.23,1.33-1.26,1.33
				c-0.92,0-1.3-0.63-1.3-1.93c0-0.93,0.18-2.03,1.34-2.03c1.15,0,1.25,1,1.25,1.81v0.24H378.42z M379.78,112.98v-0.2
				c0-0.42-0.13-0.92-0.65-0.92c-0.62,0-0.69,0.76-0.69,0.98v0.14H379.78z"/>
			<path d="M381.04,111.5h0.59v0.56h0.01c0.17-0.36,0.39-0.66,0.81-0.66c0.12,0,0.2,0.02,0.26,0.04v0.57
				c-0.06-0.01-0.13-0.03-0.32-0.03c-0.29,0-0.77,0.27-0.77,0.89v2.38h-0.59V111.5z"/>
			<path d="M384.72,112.6c0-0.48-0.13-0.74-0.55-0.74c-0.19,0-0.61,0.05-0.61,0.57c0,0.45,0.46,0.53,0.92,0.68
				c0.45,0.15,0.92,0.31,0.92,1.06c0,0.78-0.51,1.18-1.21,1.18c-1.27,0-1.29-0.95-1.29-1.33h0.59c0,0.46,0.12,0.87,0.7,0.87
				c0.19,0,0.62-0.09,0.62-0.62c0-0.5-0.47-0.62-0.92-0.76c-0.46-0.15-0.92-0.29-0.92-1.06c0-0.7,0.55-1.04,1.2-1.04
				c1.09,0,1.14,0.76,1.14,1.2H384.72z"/>
		</g>
	</g>
	<g>
		<g id="XMLID_7_">
			<path d="M357.24,52.04c-0.06,0.95-0.43,1.81-1.52,1.81c-1.42,0-1.61-1.34-1.61-2.6s0.23-2.6,1.61-2.6c1.02,0,1.45,0.57,1.48,1.55
				h-0.64c-0.02-0.57-0.2-1.05-0.83-1.05c-0.85,0-0.97,0.94-0.97,2.09c0,1.16,0.11,2.09,0.97,2.09c0.75,0,0.85-0.7,0.88-1.31H357.24
				z"/>
			<path d="M357.79,50h0.59v0.56h0.01c0.17-0.36,0.39-0.66,0.81-0.66c0.12,0,0.2,0.01,0.26,0.04v0.57
				c-0.06-0.01-0.13-0.03-0.32-0.03c-0.29,0-0.77,0.27-0.77,0.89v2.37h-0.59V50z"/>
			<path d="M360.35,51.94c0,0.58,0,1.44,0.72,1.44c0.56,0,0.64-0.58,0.64-0.87h0.59c0,0.4-0.23,1.33-1.26,1.33
				c-0.92,0-1.3-0.63-1.3-1.93c0-0.93,0.18-2.02,1.34-2.02c1.15,0,1.25,1,1.25,1.81v0.24H360.35z M361.71,51.48v-0.2
				c0-0.42-0.13-0.92-0.65-0.92c-0.62,0-0.69,0.76-0.69,0.98v0.14H361.71z"/>
			<path d="M365.44,53.75h-0.56v-0.46h-0.01c-0.08,0.28-0.41,0.56-0.81,0.56c-0.89,0-1.23-0.8-1.23-1.97c0-0.78,0.12-1.98,1.18-1.98
				c0.34,0,0.69,0.2,0.83,0.53h0.01v-1.67h0.59V53.75z M364.13,53.34c0.64,0,0.76-0.61,0.76-1.47c0-0.73-0.12-1.47-0.76-1.47
				c-0.54,0-0.69,0.57-0.69,1.47S363.59,53.34,364.13,53.34z"/>
			<path d="M366.25,48.75h0.59v0.67h-0.59V48.75z M366.25,50h0.59v3.75h-0.59V50z"/>
			<path d="M367.81,48.9h0.59V50h0.65v0.46h-0.65v2.41c0,0.3,0.08,0.42,0.39,0.42c0.13,0,0.2-0.01,0.26-0.02v0.48
				c-0.08,0.02-0.23,0.04-0.48,0.04c-0.62,0-0.76-0.25-0.76-0.74v-2.59h-0.55V50h0.55V48.9z"/>
			<path d="M372.92,51.14c0-0.36-0.15-0.78-0.59-0.78c-0.36,0-0.74,0.18-0.74,1.55c0,0.48,0.01,1.47,0.71,1.47
				c0.5,0,0.62-0.53,0.62-0.94h0.59c0,0.59-0.29,1.4-1.23,1.4c-0.92,0-1.3-0.63-1.3-1.93c0-0.93,0.18-2.02,1.34-2.02
				c1.03,0,1.2,0.81,1.2,1.24H372.92z"/>
			<path d="M374.02,51.13c0-0.85,0.36-1.23,1.26-1.23c1.14,0,1.14,0.69,1.14,1.08v2.09c0,0.16-0.01,0.3,0.18,0.3
				c0.08,0,0.11-0.01,0.14-0.04v0.42c-0.05,0.01-0.2,0.04-0.34,0.04c-0.22,0-0.51,0-0.53-0.48h-0.01c-0.19,0.34-0.55,0.54-0.9,0.54
				c-0.7,0-1.02-0.42-1.02-1.09c0-0.53,0.22-0.89,0.71-1.04l0.79-0.24c0.43-0.13,0.43-0.26,0.43-0.57c0-0.36-0.21-0.55-0.6-0.55
				c-0.64,0-0.64,0.59-0.64,0.74v0.04H374.02z M375.84,51.71c-0.23,0.23-0.74,0.27-1,0.44c-0.19,0.12-0.29,0.27-0.29,0.59
				c0,0.39,0.13,0.64,0.53,0.64c0.39,0,0.76-0.32,0.76-0.71V51.71z"/>
			<path d="M377.22,50h0.59v0.56h0.01c0.17-0.36,0.39-0.66,0.81-0.66c0.12,0,0.2,0.01,0.26,0.04v0.57
				c-0.06-0.01-0.13-0.03-0.32-0.03c-0.29,0-0.77,0.27-0.77,0.89v2.37h-0.59V50z"/>
			<path d="M381.77,53.75h-0.56v-0.46h-0.01c-0.08,0.28-0.41,0.56-0.81,0.56c-0.89,0-1.23-0.8-1.23-1.97c0-0.78,0.12-1.98,1.18-1.98
				c0.34,0,0.69,0.2,0.83,0.53h0.01v-1.67h0.59V53.75z M380.46,53.34c0.64,0,0.76-0.61,0.76-1.47c0-0.73-0.12-1.47-0.76-1.47
				c-0.54,0-0.69,0.57-0.69,1.47S379.92,53.34,380.46,53.34z"/>
			<path d="M384.15,51.1c0-0.48-0.13-0.74-0.55-0.74c-0.19,0-0.61,0.05-0.61,0.57c0,0.45,0.46,0.53,0.92,0.68
				c0.45,0.15,0.92,0.31,0.92,1.06c0,0.78-0.51,1.18-1.21,1.18c-1.27,0-1.29-0.95-1.29-1.33h0.59c0,0.46,0.12,0.87,0.7,0.87
				c0.19,0,0.62-0.09,0.62-0.62c0-0.5-0.47-0.62-0.92-0.76c-0.46-0.15-0.92-0.29-0.92-1.06c0-0.7,0.55-1.04,1.2-1.04
				c1.09,0,1.14,0.76,1.14,1.2H384.15z"/>
		</g>
	</g>
	<g id="XMLID_1_">
		<path d="M19.96,4.39h1.53c0.65,0,1.28,0.31,1.28,1.28c0,0.46-0.27,0.91-0.73,1.04v0.01c0.62,0.15,0.89,0.62,0.89,1.23
			c0,1.02-0.57,1.43-1.62,1.43h-1.36V4.39z M20.58,6.55h0.71c0.26,0,0.85-0.06,0.85-0.83c0-0.53-0.25-0.82-0.86-0.82h-0.69V6.55z
			 M20.58,8.89h0.84c0.65,0,0.88-0.44,0.88-0.92c0-0.69-0.44-0.95-0.98-0.95h-0.74V8.89z"/>
		<path d="M23.61,4.39h0.59v0.67h-0.59V4.39z M23.61,5.64h0.59v3.75h-0.59V5.64z"/>
		<path d="M25.04,4.39h0.59v5h-0.59V4.39z"/>
		<path d="M26.47,4.39h0.59v5h-0.59V4.39z"/>
		<path d="M27.89,4.39h0.59v0.67h-0.59V4.39z M27.89,5.64h0.59v3.75h-0.59V5.64z"/>
		<path d="M30.46,5.54c1.09,0,1.35,0.92,1.35,1.98s-0.27,1.97-1.35,1.97c-1.08,0-1.35-0.92-1.35-1.97S29.37,5.54,30.46,5.54z
			 M31.19,7.51C31.19,6.7,31.08,6,30.44,6c-0.6,0-0.72,0.7-0.72,1.51s0.12,1.51,0.72,1.51C31.07,9.03,31.19,8.33,31.19,7.51z"/>
		<path d="M32.39,5.64h0.56v0.44h0.01c0.16-0.34,0.55-0.54,0.91-0.54c0.99,0,0.99,0.74,0.99,1.19v2.66h-0.59V6.8
			c0-0.29-0.02-0.76-0.55-0.76c-0.32,0-0.74,0.22-0.74,0.76v2.59h-0.59V5.64z"/>
		<path d="M37.25,6.74c0-0.48-0.13-0.74-0.55-0.74c-0.19,0-0.61,0.05-0.61,0.57c0,0.45,0.46,0.53,0.92,0.68
			c0.45,0.15,0.92,0.31,0.92,1.06c0,0.78-0.51,1.18-1.21,1.18c-1.27,0-1.29-0.95-1.29-1.33h0.59c0,0.46,0.12,0.87,0.7,0.87
			c0.19,0,0.62-0.09,0.62-0.62c0-0.5-0.47-0.62-0.92-0.76c-0.46-0.15-0.92-0.29-0.92-1.06c0-0.7,0.55-1.04,1.2-1.04
			c1.09,0,1.14,0.76,1.14,1.2H37.25z"/>
	</g>
	<line class="st14" x1="370.06" y1="93.89" x2="371.37" y2="98.26"/>
	<g>
	</g>
	<g>
	</g>
	<g>
	</g>
	<g>
	</g>
	<g>
	</g>
	<g>
	</g>
</g>
</svg>
