<?xml version="1.0" encoding="utf-8"?>
<!-- Generator: Adobe Illustrator 24.0.0, SVG Export Plug-In . SVG Version: 6.00 Build 0)  -->
<svg version="1.1" xmlns="http://www.w3.org/2000/svg" xmlns:xlink="http://www.w3.org/1999/xlink" x="0px" y="0px"
	 viewBox="0 0 388.35 134.83" style="enable-background:new 0 0 388.35 134.83;" xml:space="preserve">
<style type="text/css">
	.st0{fill-rule:evenodd;clip-rule:evenodd;fill:none;stroke:#000000;stroke-width:0.5;stroke-linecap:square;stroke-miterlimit:10;}
	
		.st1{fill-rule:evenodd;clip-rule:evenodd;fill:none;stroke:#BF530A;stroke-linecap:round;stroke-miterlimit:10;stroke-dasharray:3,3;}
	.st2{fill-rule:evenodd;clip-rule:evenodd;stroke:#00437C;stroke-linecap:round;stroke-miterlimit:10;}
	.st3{fill-rule:evenodd;clip-rule:evenodd;fill:none;stroke:#00437C;stroke-miterlimit:10;stroke-dasharray:3,1,0.75,1;}
	.st4{fill-rule:evenodd;clip-rule:evenodd;stroke:#BF530A;stroke-linecap:round;stroke-miterlimit:10;}
	.st5{fill:none;stroke:#BF530A;stroke-linecap:round;stroke-miterlimit:10;}
	.st6{fill:none;stroke:#BF530A;stroke-linecap:round;stroke-miterlimit:10;stroke-dasharray:0.4852,2.9115;}
	.st7{fill:none;stroke:#BF530A;stroke-linecap:round;stroke-miterlimit:10;stroke-dasharray:0.4852,2.9111;}
	.st8{fill:none;stroke:#BF530A;stroke-linecap:round;stroke-miterlimit:10;stroke-dasharray:0.4833,2.9;}
	.st9{fill:none;stroke:#BF530A;stroke-linecap:round;stroke-miterlimit:10;stroke-dasharray:0.4834,2.9002;}
	.st10{fill:none;stroke:#BF530A;stroke-linecap:round;stroke-miterlimit:10;stroke-dasharray:0.4837,2.902;}
	.st11{fill:none;stroke:#BF530A;stroke-linecap:round;stroke-miterlimit:10;stroke-dasharray:0.4876,2.9254;}
	.st12{fill:none;stroke:#BF530A;stroke-linecap:round;stroke-miterlimit:10;stroke-dasharray:0.4876,2.9259;}
	.st13{fill:none;stroke:#BF530A;stroke-linecap:round;stroke-miterlimit:10;stroke-dasharray:0.4829,2.8973;}
	.st14{fill:none;stroke:#BF530A;stroke-linecap:round;stroke-miterlimit:10;stroke-dasharray:0.4829,2.8972;}
	.st15{fill:none;stroke:#BF530A;stroke-linecap:round;stroke-miterlimit:10;stroke-dasharray:0.4878,2.9269;}
	.st16{fill:none;stroke:#BF530A;stroke-linecap:round;stroke-miterlimit:10;stroke-dasharray:0.4877,2.9264;}
	.st17{fill:none;stroke:#00437C;stroke-linecap:round;stroke-miterlimit:10;}
	.st18{fill:none;stroke:#00437C;stroke-linecap:round;stroke-miterlimit:10;stroke-dasharray:0.4826,2.8959;}
	.st19{fill:none;stroke:#00437C;stroke-linecap:round;stroke-miterlimit:10;stroke-dasharray:0.4827,2.8959;}
	.st20{fill:none;stroke:#00437C;stroke-linecap:round;stroke-miterlimit:10;stroke-dasharray:0.4827,2.896;}
	.st21{fill:none;stroke:#00437C;stroke-linecap:round;stroke-miterlimit:10;stroke-dasharray:0.4827,2.8961;}
	.st22{fill:none;stroke:#00437C;stroke-linecap:round;stroke-miterlimit:10;stroke-dasharray:0.5035,3.0211;}
	.st23{fill:none;stroke:#00437C;stroke-linecap:round;stroke-miterlimit:10;stroke-dasharray:0.5033,3.0201;}
	.st24{fill:none;stroke:#00437C;stroke-linecap:round;stroke-miterlimit:10;stroke-dasharray:0.5005,3.0028;}
	.st25{fill:none;stroke:#00437C;stroke-linecap:round;stroke-miterlimit:10;stroke-dasharray:0.5006,3.0037;}
	.st26{fill:none;stroke:#00437C;stroke-linecap:round;stroke-miterlimit:10;stroke-dasharray:0.4841,2.9043;}
	.st27{fill:none;stroke:#00437C;stroke-linecap:round;stroke-miterlimit:10;stroke-dasharray:0.484,2.9041;}
	.st28{fill:none;stroke:#00437C;stroke-linecap:round;stroke-miterlimit:10;stroke-dasharray:0.487,2.922;}
	.st29{fill:none;stroke:#00437C;stroke-linecap:round;stroke-miterlimit:10;stroke-dasharray:0.4869,2.9215;}
	.st30{fill:none;stroke:#000000;stroke-width:0.5;stroke-miterlimit:10;}
</style>
<g id="new_graph">
	<g>
	</g>
	<g>
		<line class="st0" x1="11.44" y1="123.89" x2="11.44" y2="3.54"/>
	</g>
	<g>
		<g>
			<g>
				<line class="st1" x1="156.15" y1="123.65" x2="135.87" y2="123.7"/>
				<line class="st1" x1="176.44" y1="123.6" x2="156.15" y2="123.65"/>
				<line class="st1" x1="196.72" y1="123.55" x2="176.44" y2="123.6"/>
				<line class="st1" x1="217.01" y1="123.48" x2="196.72" y2="123.55"/>
				<line class="st1" x1="237.29" y1="123.41" x2="217.01" y2="123.48"/>
				<line class="st1" x1="257.57" y1="123.34" x2="237.29" y2="123.41"/>
				<line class="st1" x1="277.86" y1="123.29" x2="257.57" y2="123.34"/>
				<line class="st1" x1="298.14" y1="123.24" x2="277.86" y2="123.29"/>
				<line class="st1" x1="318.42" y1="123.19" x2="298.14" y2="123.24"/>
				<line class="st1" x1="338.71" y1="123.19" x2="318.42" y2="123.19"/>
				<line class="st1" x1="358.99" y1="123.17" x2="338.71" y2="123.19"/>
				<line class="st1" x1="379.27" y1="123.05" x2="358.99" y2="123.17"/>
			</g>
		</g>
		<g>
			<g>
				<line class="st2" x1="34.45" y1="122.83" x2="14.17" y2="123.05"/>
				<line class="st2" x1="54.74" y1="122.59" x2="34.45" y2="122.83"/>
				<line class="st2" x1="75.02" y1="122.37" x2="54.74" y2="122.59"/>
				<line class="st2" x1="95.3" y1="122.1" x2="75.02" y2="122.37"/>
				<line class="st2" x1="115.59" y1="121.81" x2="95.3" y2="122.1"/>
				<line class="st2" x1="135.87" y1="121.55" x2="115.59" y2="121.81"/>
				<line class="st2" x1="156.15" y1="121.16" x2="135.87" y2="121.55"/>
				<line class="st2" x1="176.44" y1="120.77" x2="156.15" y2="121.16"/>
				<line class="st2" x1="196.72" y1="120.36" x2="176.44" y2="120.77"/>
				<line class="st2" x1="217.01" y1="120.02" x2="196.72" y2="120.36"/>
				<line class="st2" x1="237.29" y1="119.71" x2="217.01" y2="120.02"/>
				<line class="st2" x1="257.57" y1="119.37" x2="237.29" y2="119.71"/>
				<line class="st2" x1="277.86" y1="119.13" x2="257.57" y2="119.37"/>
				<line class="st2" x1="298.14" y1="118.89" x2="277.86" y2="119.13"/>
				<line class="st2" x1="318.42" y1="118.62" x2="298.14" y2="118.89"/>
				<line class="st2" x1="338.71" y1="118.31" x2="318.42" y2="118.62"/>
				<line class="st2" x1="358.99" y1="117.92" x2="338.71" y2="118.31"/>
				<line class="st2" x1="379.27" y1="117.24" x2="358.99" y2="117.92"/>
			</g>
		</g>
		<g>
			<g>
				<line class="st3" x1="34.45" y1="120.48" x2="14.17" y2="120.8"/>
				<line class="st3" x1="54.74" y1="120.17" x2="34.45" y2="120.48"/>
				<line class="st3" x1="75.02" y1="119.83" x2="54.74" y2="120.17"/>
				<line class="st3" x1="95.3" y1="119.47" x2="75.02" y2="119.83"/>
				<line class="st3" x1="115.59" y1="119.13" x2="95.3" y2="119.47"/>
				<line class="st3" x1="135.87" y1="118.77" x2="115.59" y2="119.13"/>
				<line class="st3" x1="156.15" y1="118.91" x2="135.87" y2="118.77"/>
				<line class="st3" x1="176.44" y1="119.08" x2="156.15" y2="118.91"/>
				<line class="st3" x1="196.72" y1="119.25" x2="176.44" y2="119.08"/>
				<line class="st3" x1="217.01" y1="118.74" x2="196.72" y2="119.25"/>
				<line class="st3" x1="237.29" y1="118.24" x2="217.01" y2="118.74"/>
				<line class="st3" x1="257.57" y1="117.73" x2="237.29" y2="118.24"/>
				<line class="st3" x1="277.86" y1="117.34" x2="257.57" y2="117.73"/>
				<line class="st3" x1="298.14" y1="116.93" x2="277.86" y2="117.34"/>
				<line class="st3" x1="318.42" y1="116.52" x2="298.14" y2="116.93"/>
				<line class="st3" x1="338.71" y1="115.99" x2="318.42" y2="116.52"/>
				<line class="st3" x1="358.99" y1="115.19" x2="338.71" y2="115.99"/>
				<line class="st3" x1="379.27" y1="114.27" x2="358.99" y2="115.19"/>
			</g>
		</g>
		<g>
			<g>
				<line class="st4" x1="34.45" y1="100.13" x2="14.17" y2="103.06"/>
				<line class="st4" x1="54.74" y1="97.23" x2="34.45" y2="100.13"/>
				<line class="st4" x1="75.02" y1="94.33" x2="54.74" y2="97.23"/>
				<line class="st4" x1="95.3" y1="89.91" x2="75.02" y2="94.33"/>
				<line class="st4" x1="115.59" y1="85.51" x2="95.3" y2="89.91"/>
				<line class="st4" x1="135.87" y1="81.11" x2="115.59" y2="85.51"/>
				<line class="st4" x1="156.15" y1="77.53" x2="135.87" y2="81.11"/>
				<line class="st4" x1="176.44" y1="73.96" x2="156.15" y2="77.53"/>
				<line class="st4" x1="196.72" y1="70.38" x2="176.44" y2="73.96"/>
				<line class="st4" x1="217.01" y1="66.05" x2="196.72" y2="70.38"/>
				<line class="st4" x1="237.29" y1="61.72" x2="217.01" y2="66.05"/>
				<line class="st4" x1="257.57" y1="57.4" x2="237.29" y2="61.72"/>
				<line class="st4" x1="277.86" y1="53.41" x2="257.57" y2="57.4"/>
				<line class="st4" x1="298.14" y1="49.4" x2="277.86" y2="53.41"/>
				<line class="st4" x1="318.42" y1="45.39" x2="298.14" y2="49.4"/>
				<line class="st4" x1="338.71" y1="38.62" x2="318.42" y2="45.39"/>
				<line class="st4" x1="358.99" y1="31.87" x2="338.71" y2="38.62"/>
				<line class="st4" x1="379.27" y1="25.11" x2="358.99" y2="31.87"/>
			</g>
		</g>
		<g>
			<g>
				<g>
					<g>
						<line class="st5" x1="34.45" y1="99.43" x2="34.2" y2="99.46"/>
						<line class="st6" x1="31.31" y1="99.76" x2="15.86" y2="101.38"/>
						<line class="st5" x1="14.42" y1="101.53" x2="14.17" y2="101.56"/>
					</g>
				</g>
				<g>
					<g>
						<line class="st5" x1="54.74" y1="97.3" x2="54.49" y2="97.33"/>
						<line class="st6" x1="51.59" y1="97.63" x2="36.15" y2="99.25"/>
						<line class="st5" x1="34.7" y1="99.4" x2="34.45" y2="99.43"/>
					</g>
				</g>
				<g>
					<g>
						<line class="st5" x1="75.02" y1="95.2" x2="74.77" y2="95.23"/>
						<line class="st7" x1="71.87" y1="95.53" x2="56.43" y2="97.13"/>
						<line class="st5" x1="54.98" y1="97.28" x2="54.74" y2="97.3"/>
					</g>
				</g>
				<g>
					<g>
						<line class="st5" x1="95.3" y1="94.04" x2="95.05" y2="94.06"/>
						<line class="st8" x1="92.16" y1="94.22" x2="76.72" y2="95.1"/>
						<line class="st5" x1="75.27" y1="95.19" x2="75.02" y2="95.2"/>
					</g>
				</g>
				<g>
					<g>
						<line class="st5" x1="115.59" y1="92.86" x2="115.34" y2="92.87"/>
						<line class="st9" x1="112.44" y1="93.04" x2="97" y2="93.94"/>
						<line class="st5" x1="95.55" y1="94.03" x2="95.3" y2="94.04"/>
					</g>
				</g>
				<g>
					<g>
						<line class="st5" x1="135.87" y1="91.7" x2="135.62" y2="91.71"/>
						<line class="st8" x1="132.73" y1="91.88" x2="117.28" y2="92.76"/>
						<line class="st5" x1="115.84" y1="92.84" x2="115.59" y2="92.86"/>
					</g>
				</g>
				<g>
					<g>
						<line class="st5" x1="156.15" y1="90.32" x2="155.9" y2="90.34"/>
						<line class="st10" x1="153.01" y1="90.53" x2="137.57" y2="91.58"/>
						<line class="st5" x1="136.12" y1="91.68" x2="135.87" y2="91.7"/>
					</g>
				</g>
				<g>
					<g>
						<line class="st5" x1="176.44" y1="88.94" x2="176.19" y2="88.96"/>
						<line class="st10" x1="173.29" y1="89.15" x2="157.85" y2="90.2"/>
						<line class="st5" x1="156.4" y1="90.3" x2="156.15" y2="90.32"/>
					</g>
				</g>
				<g>
					<g>
						<line class="st5" x1="196.72" y1="87.56" x2="196.47" y2="87.58"/>
						<line class="st10" x1="193.58" y1="87.78" x2="178.13" y2="88.83"/>
						<line class="st5" x1="176.69" y1="88.92" x2="176.44" y2="88.94"/>
					</g>
				</g>
				<g>
					<g>
						<line class="st5" x1="217.01" y1="84.66" x2="216.76" y2="84.7"/>
						<line class="st11" x1="213.86" y1="85.11" x2="198.42" y2="87.32"/>
						<line class="st5" x1="196.97" y1="87.53" x2="196.72" y2="87.56"/>
					</g>
				</g>
				<g>
					<g>
						<line class="st5" x1="237.29" y1="81.74" x2="237.04" y2="81.77"/>
						<line class="st12" x1="234.15" y1="82.19" x2="218.7" y2="84.42"/>
						<line class="st5" x1="217.25" y1="84.63" x2="217.01" y2="84.66"/>
					</g>
				</g>
				<g>
					<g>
						<line class="st5" x1="257.57" y1="78.81" x2="257.33" y2="78.85"/>
						<line class="st12" x1="254.43" y1="79.27" x2="238.98" y2="81.49"/>
						<line class="st5" x1="237.54" y1="81.7" x2="237.29" y2="81.74"/>
					</g>
				</g>
				<g>
					<g>
						<line class="st5" x1="277.86" y1="78.04" x2="277.61" y2="78.05"/>
						<line class="st13" x1="274.71" y1="78.16" x2="259.27" y2="78.75"/>
						<line class="st5" x1="257.82" y1="78.8" x2="257.57" y2="78.81"/>
					</g>
				</g>
				<g>
					<g>
						<line class="st5" x1="298.14" y1="77.29" x2="297.89" y2="77.3"/>
						<line class="st14" x1="294.99" y1="77.41" x2="279.55" y2="77.98"/>
						<line class="st5" x1="278.11" y1="78.03" x2="277.86" y2="78.04"/>
					</g>
				</g>
				<g>
					<g>
						<line class="st5" x1="318.42" y1="76.52" x2="318.17" y2="76.53"/>
						<line class="st13" x1="315.28" y1="76.64" x2="299.84" y2="77.23"/>
						<line class="st5" x1="298.39" y1="77.28" x2="298.14" y2="77.29"/>
					</g>
				</g>
				<g>
					<g>
						<line class="st5" x1="338.71" y1="73.54" x2="338.46" y2="73.58"/>
						<line class="st15" x1="335.56" y1="74" x2="320.12" y2="76.27"/>
						<line class="st5" x1="318.67" y1="76.48" x2="318.42" y2="76.52"/>
					</g>
				</g>
				<g>
					<g>
						<line class="st5" x1="358.99" y1="70.57" x2="358.74" y2="70.61"/>
						<line class="st15" x1="355.85" y1="71.03" x2="340.4" y2="73.3"/>
						<line class="st5" x1="338.95" y1="73.51" x2="338.71" y2="73.54"/>
					</g>
				</g>
				<g>
					<g>
						<line class="st5" x1="379.27" y1="67.62" x2="379.03" y2="67.66"/>
						<line class="st16" x1="376.13" y1="68.08" x2="360.69" y2="70.32"/>
						<line class="st5" x1="359.24" y1="70.54" x2="358.99" y2="70.57"/>
					</g>
				</g>
			</g>
		</g>
		<g>
			<g>
				<g>
					<g>
						<line class="st17" x1="34.45" y1="26.05" x2="34.2" y2="26.05"/>
						<line class="st18" x1="31.31" y1="26.12" x2="15.87" y2="26.45"/>
						<line class="st17" x1="14.42" y1="26.48" x2="14.17" y2="26.48"/>
					</g>
				</g>
				<g>
					<g>
						<line class="st17" x1="54.74" y1="25.59" x2="54.49" y2="25.59"/>
						<line class="st19" x1="51.59" y1="25.66" x2="36.15" y2="26.01"/>
						<line class="st17" x1="34.7" y1="26.04" x2="34.45" y2="26.05"/>
					</g>
				</g>
				<g>
					<g>
						<line class="st17" x1="75.02" y1="25.13" x2="74.77" y2="25.14"/>
						<line class="st19" x1="71.87" y1="25.2" x2="56.43" y2="25.55"/>
						<line class="st17" x1="54.99" y1="25.58" x2="54.74" y2="25.59"/>
					</g>
				</g>
				<g>
					<g>
						<line class="st17" x1="95.3" y1="24.65" x2="95.05" y2="24.65"/>
						<line class="st20" x1="92.16" y1="24.72" x2="76.72" y2="25.09"/>
						<line class="st17" x1="75.27" y1="25.12" x2="75.02" y2="25.13"/>
					</g>
				</g>
				<g>
					<g>
						<line class="st17" x1="115.59" y1="24.14" x2="115.34" y2="24.15"/>
						<line class="st21" x1="112.44" y1="24.22" x2="97" y2="24.6"/>
						<line class="st17" x1="95.55" y1="24.64" x2="95.3" y2="24.65"/>
					</g>
				</g>
				<g>
					<g>
						<line class="st17" x1="135.87" y1="23.66" x2="135.62" y2="23.66"/>
						<line class="st20" x1="132.73" y1="23.73" x2="117.28" y2="24.1"/>
						<line class="st17" x1="115.84" y1="24.13" x2="115.59" y2="24.14"/>
					</g>
				</g>
				<g>
					<g>
						<line class="st17" x1="156.15" y1="29.63" x2="155.91" y2="29.56"/>
						<line class="st22" x1="153.02" y1="28.7" x2="137.56" y2="24.15"/>
						<line class="st17" x1="136.11" y1="23.73" x2="135.87" y2="23.66"/>
					</g>
				</g>
				<g>
					<g>
						<line class="st17" x1="176.44" y1="35.57" x2="176.2" y2="35.5"/>
						<line class="st23" x1="173.3" y1="34.65" x2="157.84" y2="30.12"/>
						<line class="st17" x1="156.39" y1="29.7" x2="156.15" y2="29.63"/>
					</g>
				</g>
				<g>
					<g>
						<line class="st17" x1="196.72" y1="41.54" x2="196.48" y2="41.47"/>
						<line class="st22" x1="193.58" y1="40.62" x2="178.13" y2="36.07"/>
						<line class="st17" x1="176.68" y1="35.64" x2="176.44" y2="35.57"/>
					</g>
				</g>
				<g>
					<g>
						<line class="st17" x1="217.01" y1="47.05" x2="216.76" y2="46.99"/>
						<line class="st24" x1="213.87" y1="46.2" x2="198.41" y2="42"/>
						<line class="st17" x1="196.96" y1="41.61" x2="196.72" y2="41.54"/>
					</g>
				</g>
				<g>
					<g>
						<line class="st17" x1="237.29" y1="52.59" x2="237.05" y2="52.52"/>
						<line class="st25" x1="234.15" y1="51.73" x2="218.7" y2="47.51"/>
						<line class="st17" x1="217.25" y1="47.12" x2="217.01" y2="47.05"/>
					</g>
				</g>
				<g>
					<g>
						<line class="st17" x1="257.57" y1="58.12" x2="257.33" y2="58.06"/>
						<line class="st25" x1="254.43" y1="57.27" x2="238.98" y2="53.05"/>
						<line class="st17" x1="237.53" y1="52.65" x2="237.29" y2="52.59"/>
					</g>
				</g>
				<g>
					<g>
						<line class="st17" x1="277.86" y1="56.53" x2="277.61" y2="56.55"/>
						<line class="st26" x1="274.71" y1="56.78" x2="259.27" y2="57.99"/>
						<line class="st17" x1="257.82" y1="58.1" x2="257.57" y2="58.12"/>
					</g>
				</g>
				<g>
					<g>
						<line class="st17" x1="298.14" y1="54.93" x2="297.89" y2="54.95"/>
						<line class="st26" x1="295" y1="55.18" x2="279.55" y2="56.39"/>
						<line class="st17" x1="278.11" y1="56.51" x2="277.86" y2="56.53"/>
					</g>
				</g>
				<g>
					<g>
						<line class="st17" x1="318.42" y1="53.36" x2="318.17" y2="53.38"/>
						<line class="st27" x1="315.28" y1="53.61" x2="299.84" y2="54.8"/>
						<line class="st17" x1="298.39" y1="54.91" x2="298.14" y2="54.93"/>
					</g>
				</g>
				<g>
					<g>
						<line class="st17" x1="338.71" y1="56.09" x2="338.46" y2="56.06"/>
						<line class="st28" x1="335.56" y1="55.67" x2="320.12" y2="53.59"/>
						<line class="st17" x1="318.67" y1="53.39" x2="318.42" y2="53.36"/>
					</g>
				</g>
				<g>
					<g>
						<line class="st17" x1="358.99" y1="58.8" x2="358.74" y2="58.77"/>
						<line class="st29" x1="355.85" y1="58.38" x2="340.4" y2="56.32"/>
						<line class="st17" x1="338.96" y1="56.13" x2="338.71" y2="56.09"/>
					</g>
				</g>
				<g>
					<g>
						<line class="st17" x1="379.27" y1="61.53" x2="379.03" y2="61.5"/>
						<line class="st28" x1="376.13" y1="61.11" x2="360.69" y2="59.03"/>
						<line class="st17" x1="359.24" y1="58.83" x2="358.99" y2="58.8"/>
					</g>
				</g>
			</g>
		</g>
	</g>
	<g>
		<g>
		</g>
		<g>
		</g>
		<g>
		</g>
		<g>
		</g>
		<g>
		</g>
		<g>
		</g>
	</g>
	<g>
		<g>
			<path d="M376.49,133.12h-3.17c0-1.06,0.59-1.78,1.22-2.32l0.46-0.39c0.46-0.39,0.75-0.74,0.75-1.36c0-0.48-0.22-1.02-0.82-1.02
				c-0.87,0-0.9,0.9-0.9,1.22h-0.7c0-1.06,0.45-1.8,1.61-1.8c1.31,0,1.52,1.02,1.52,1.51c0,0.86-0.36,1.33-0.99,1.86l-0.8,0.7
				c-0.31,0.26-0.53,0.59-0.62,0.97h2.43V133.12z"/>
			<path d="M377.13,130.36c0-1.25,0.08-2.91,1.62-2.91s1.62,1.53,1.62,2.91c0,1.19-0.08,2.86-1.62,2.86S377.13,131.71,377.13,130.36
				z M378.75,132.7c0.86,0,0.91-1.14,0.91-2.33c0-1.25-0.05-2.38-0.91-2.38s-0.91,1.13-0.91,2.38
				C377.83,131.56,377.88,132.7,378.75,132.7z"/>
			<path d="M381.2,128.38c0.71-0.04,1.36-0.12,1.4-0.93h0.48v5.66h-0.67v-4.25h-1.21V128.38z"/>
			<path d="M385.8,130.1c-0.58-0.23-0.82-0.6-0.82-1.21c0-0.92,0.54-1.44,1.45-1.44s1.45,0.52,1.45,1.44c0,0.61-0.25,0.98-0.82,1.21
				c0.66,0.22,1,0.7,1,1.46c0,0.74-0.35,1.67-1.62,1.67s-1.62-0.93-1.62-1.67C384.8,130.8,385.14,130.32,385.8,130.1z M386.43,132.7
				c0.66,0,0.92-0.5,0.92-1.17s-0.26-1.17-0.92-1.17s-0.92,0.5-0.92,1.17S385.77,132.7,386.43,132.7z M385.68,128.91
				c0,0.54,0.22,0.93,0.74,0.93c0.51,0,0.74-0.39,0.74-0.93c0-0.54-0.23-0.93-0.74-0.93C385.91,127.98,385.68,128.37,385.68,128.91z
				"/>
		</g>
		<g>
		</g>
		<g>
		</g>
		<g>
			<path d="M315.84,133.12h-3.17c0-1.06,0.59-1.78,1.22-2.32l0.46-0.39c0.46-0.39,0.75-0.74,0.75-1.36c0-0.48-0.22-1.02-0.82-1.02
				c-0.87,0-0.9,0.9-0.9,1.22h-0.7c0-1.06,0.45-1.8,1.61-1.8c1.31,0,1.52,1.02,1.52,1.51c0,0.86-0.36,1.33-0.99,1.86l-0.8,0.7
				c-0.31,0.26-0.53,0.59-0.62,0.97h2.43V133.12z"/>
			<path d="M316.48,130.36c0-1.25,0.08-2.91,1.62-2.91s1.62,1.53,1.62,2.91c0,1.19-0.08,2.86-1.62,2.86S316.48,131.71,316.48,130.36
				z M318.1,132.7c0.86,0,0.91-1.14,0.91-2.33c0-1.25-0.05-2.38-0.91-2.38s-0.91,1.13-0.91,2.38
				C317.19,131.56,317.23,132.7,318.1,132.7z"/>
			<path d="M320.55,128.38c0.71-0.04,1.36-0.12,1.4-0.93h0.48v5.66h-0.67v-4.25h-1.21V128.38z"/>
			<path d="M324.63,127.57h2.53v0.62h-1.99l-0.22,1.64l0.02,0.02c0.23-0.28,0.61-0.42,0.99-0.42c0.86,0,1.42,0.67,1.42,1.86
				c0,1.06-0.46,1.94-1.65,1.94c-1.34,0-1.55-1.11-1.55-1.57h0.7c0,0.3,0.11,1.04,0.86,1.04c0.8,0,0.93-0.9,0.93-1.47
				c0-0.62-0.23-1.28-0.94-1.28c-0.49,0-0.8,0.42-0.8,0.55l-0.61-0.03L324.63,127.57z"/>
		</g>
		<g>
		</g>
		<g>
		</g>
		<g>
			<path d="M254.69,133.12h-3.17c0-1.06,0.59-1.78,1.22-2.32l0.46-0.39c0.46-0.39,0.75-0.74,0.75-1.36c0-0.48-0.22-1.02-0.82-1.02
				c-0.87,0-0.9,0.9-0.9,1.22h-0.7c0-1.06,0.45-1.8,1.61-1.8c1.31,0,1.52,1.02,1.52,1.51c0,0.86-0.36,1.33-0.99,1.86l-0.8,0.7
				c-0.31,0.26-0.53,0.59-0.62,0.97h2.43V133.12z"/>
			<path d="M255.33,130.36c0-1.25,0.08-2.91,1.62-2.91s1.62,1.53,1.62,2.91c0,1.19-0.08,2.86-1.62,2.86S255.33,131.71,255.33,130.36
				z M256.95,132.7c0.86,0,0.91-1.14,0.91-2.33c0-1.25-0.05-2.38-0.91-2.38s-0.91,1.13-0.91,2.38
				C256.04,131.56,256.09,132.7,256.95,132.7z"/>
			<path d="M259.41,128.38c0.71-0.04,1.36-0.12,1.4-0.93h0.48v5.66h-0.67v-4.25h-1.21V128.38z"/>
			<path d="M266.21,133.12h-3.17c0-1.06,0.59-1.78,1.22-2.32l0.46-0.39c0.46-0.39,0.75-0.74,0.75-1.36c0-0.48-0.22-1.02-0.82-1.02
				c-0.87,0-0.9,0.9-0.9,1.22h-0.7c0-1.06,0.45-1.8,1.61-1.8c1.31,0,1.52,1.02,1.52,1.51c0,0.86-0.36,1.33-0.99,1.86l-0.8,0.7
				c-0.31,0.26-0.53,0.59-0.62,0.97h2.43V133.12z"/>
		</g>
		<g>
		</g>
		<g>
		</g>
		<g>
			<path d="M194.04,133.12h-3.17c0-1.06,0.59-1.78,1.22-2.32l0.46-0.39c0.46-0.39,0.75-0.74,0.75-1.36c0-0.48-0.22-1.02-0.82-1.02
				c-0.87,0-0.9,0.9-0.9,1.22h-0.7c0-1.06,0.45-1.8,1.61-1.8c1.31,0,1.52,1.02,1.52,1.51c0,0.86-0.36,1.33-0.99,1.86l-0.8,0.7
				c-0.31,0.26-0.53,0.59-0.62,0.97h2.43V133.12z"/>
			<path d="M194.69,130.36c0-1.25,0.08-2.91,1.62-2.91s1.62,1.53,1.62,2.91c0,1.19-0.08,2.86-1.62,2.86S194.69,131.71,194.69,130.36
				z M196.3,132.7c0.86,0,0.91-1.14,0.91-2.33c0-1.25-0.05-2.38-0.91-2.38s-0.91,1.13-0.91,2.38
				C195.39,131.56,195.44,132.7,196.3,132.7z"/>
			<path d="M198.53,130.36c0-1.25,0.08-2.91,1.62-2.91s1.62,1.53,1.62,2.91c0,1.19-0.08,2.86-1.62,2.86S198.53,131.71,198.53,130.36
				z M200.14,132.7c0.86,0,0.91-1.14,0.91-2.33c0-1.25-0.05-2.38-0.91-2.38s-0.91,1.13-0.91,2.38
				C199.23,131.56,199.28,132.7,200.14,132.7z"/>
			<path d="M203.17,131.87c0,0.47,0.26,0.83,0.74,0.83c0.93,0,1-1.42,1-1.7v-0.45h-0.02c-0.1,0.22-0.46,0.63-1.08,0.63
				c-0.98,0-1.48-0.74-1.48-1.79c0-1.1,0.54-1.94,1.6-1.94c1.57,0,1.68,1.52,1.68,2.69c0,1.3-0.08,3.09-1.72,3.09
				c-1.31,0-1.43-1.1-1.43-1.36H203.17z M203.94,127.98c-0.7,0-0.9,0.71-0.9,1.31s0.15,1.31,0.9,1.31c0.74,0,0.9-0.71,0.9-1.31
				S204.64,127.98,203.94,127.98z"/>
		</g>
		<g>
		</g>
		<g>
		</g>
		<g>
			<path d="M132.4,133.12h-3.17c0-1.06,0.59-1.78,1.22-2.32l0.46-0.39c0.46-0.39,0.75-0.74,0.75-1.36c0-0.48-0.22-1.02-0.82-1.02
				c-0.87,0-0.9,0.9-0.9,1.22h-0.7c0-1.06,0.45-1.8,1.61-1.8c1.31,0,1.52,1.02,1.52,1.51c0,0.86-0.36,1.33-0.99,1.86l-0.8,0.7
				c-0.31,0.26-0.53,0.59-0.62,0.97h2.43V133.12z"/>
			<path d="M133.04,130.36c0-1.25,0.08-2.91,1.62-2.91s1.62,1.53,1.62,2.91c0,1.19-0.08,2.86-1.62,2.86S133.04,131.71,133.04,130.36
				z M134.65,132.7c0.86,0,0.91-1.14,0.91-2.33c0-1.25-0.05-2.38-0.91-2.38s-0.91,1.13-0.91,2.38
				C133.74,131.56,133.79,132.7,134.65,132.7z"/>
			<path d="M136.88,130.36c0-1.25,0.08-2.91,1.62-2.91s1.62,1.53,1.62,2.91c0,1.19-0.08,2.86-1.62,2.86S136.88,131.71,136.88,130.36
				z M138.49,132.7c0.86,0,0.91-1.14,0.91-2.33c0-1.25-0.05-2.38-0.91-2.38s-0.91,1.13-0.91,2.38
				C137.58,131.56,137.63,132.7,138.49,132.7z"/>
			<path d="M143.14,128.81c0-0.48-0.26-0.83-0.74-0.83c-0.93,0-1,1.41-1,1.7v0.45h0.02c0.1-0.22,0.46-0.63,1.08-0.63
				c0.98,0,1.48,0.74,1.48,1.79c0,1.1-0.54,1.94-1.6,1.94c-1.57,0-1.68-1.51-1.68-2.69c0-1.3,0.08-3.09,1.72-3.09
				c1.31,0,1.43,1.1,1.43,1.36H143.14z M142.37,132.7c0.7,0,0.9-0.71,0.9-1.31c0-0.6-0.15-1.31-0.9-1.31c-0.74,0-0.9,0.71-0.9,1.31
				C141.48,131.99,141.67,132.7,142.37,132.7z"/>
		</g>
		<g>
		</g>
		<g>
		</g>
		<g>
			<path d="M71.75,133.12h-3.17c0-1.06,0.59-1.78,1.22-2.32l0.46-0.39c0.46-0.39,0.75-0.74,0.75-1.36c0-0.48-0.22-1.02-0.82-1.02
				c-0.87,0-0.9,0.9-0.9,1.22h-0.7c0-1.06,0.45-1.8,1.61-1.8c1.31,0,1.52,1.02,1.52,1.51c0,0.86-0.36,1.33-0.99,1.86l-0.8,0.7
				c-0.31,0.26-0.53,0.59-0.62,0.97h2.43V133.12z"/>
			<path d="M72.39,130.36c0-1.25,0.08-2.91,1.62-2.91s1.62,1.53,1.62,2.91c0,1.19-0.08,2.86-1.62,2.86S72.39,131.71,72.39,130.36z
				 M74,132.7c0.86,0,0.91-1.14,0.91-2.33c0-1.25-0.05-2.38-0.91-2.38s-0.91,1.13-0.91,2.38C73.09,131.56,73.14,132.7,74,132.7z"/>
			<path d="M76.23,130.36c0-1.25,0.08-2.91,1.62-2.91s1.62,1.53,1.62,2.91c0,1.19-0.08,2.86-1.62,2.86S76.23,131.71,76.23,130.36z
				 M77.84,132.7c0.86,0,0.91-1.14,0.91-2.33c0-1.25-0.05-2.38-0.91-2.38s-0.91,1.13-0.91,2.38
				C76.93,131.56,76.98,132.7,77.84,132.7z"/>
			<path d="M81.2,129.92h0.35c0.6,0,0.86-0.43,0.86-1c0-0.51-0.19-0.94-0.74-0.94c-0.74,0-0.82,0.7-0.82,1.1h-0.7
				c0-0.96,0.46-1.63,1.5-1.63c1.18,0,1.46,0.83,1.46,1.47c0,0.58-0.28,1.06-0.88,1.21v0.02c0.64,0.13,1.05,0.53,1.05,1.32
				c0,1.03-0.52,1.75-1.61,1.75c-1.52,0-1.61-1.32-1.61-1.58v-0.07h0.7c0,0.52,0.26,1.12,0.9,1.12c0.42,0,0.9-0.21,0.9-1.17
				c0-0.67-0.32-1.08-1.02-1.08H81.2V129.92z"/>
		</g>
		<g>
		</g>
		<g>
		</g>
		<g>
			<path d="M10.6,133.12H7.43c0-1.06,0.59-1.78,1.22-2.32l0.46-0.39c0.46-0.39,0.75-0.74,0.75-1.36c0-0.48-0.22-1.02-0.82-1.02
				c-0.87,0-0.9,0.9-0.9,1.22h-0.7c0-1.06,0.45-1.8,1.61-1.8c1.31,0,1.52,1.02,1.52,1.51c0,0.86-0.36,1.33-0.99,1.86l-0.8,0.7
				c-0.31,0.26-0.53,0.59-0.62,0.97h2.43V133.12z"/>
			<path d="M11.24,130.36c0-1.25,0.08-2.91,1.62-2.91s1.62,1.53,1.62,2.91c0,1.19-0.08,2.86-1.62,2.86S11.24,131.71,11.24,130.36z
				 M12.85,132.7c0.86,0,0.91-1.14,0.91-2.33c0-1.25-0.05-2.38-0.91-2.38s-0.91,1.13-0.91,2.38
				C11.94,131.56,11.99,132.7,12.85,132.7z"/>
			<path d="M15.08,130.36c0-1.25,0.08-2.91,1.62-2.91s1.62,1.53,1.62,2.91c0,1.19-0.08,2.86-1.62,2.86S15.08,131.71,15.08,130.36z
				 M16.69,132.7c0.86,0,0.91-1.14,0.91-2.33c0-1.25-0.05-2.38-0.91-2.38s-0.91,1.13-0.91,2.38
				C15.78,131.56,15.83,132.7,16.69,132.7z"/>
			<path d="M18.92,130.36c0-1.25,0.08-2.91,1.62-2.91s1.62,1.53,1.62,2.91c0,1.19-0.08,2.86-1.62,2.86S18.92,131.71,18.92,130.36z
				 M20.53,132.7c0.86,0,0.91-1.14,0.91-2.33c0-1.25-0.05-2.38-0.91-2.38s-0.91,1.13-0.91,2.38
				C19.62,131.56,19.67,132.7,20.53,132.7z"/>
		</g>
	</g>
</g>
<g id="axis">
	<g>
		<g id="XMLID_2_">
			<path d="M363.74,54.78c-0.06,0.95-0.43,1.81-1.52,1.81c-1.42,0-1.61-1.34-1.61-2.6s0.23-2.6,1.61-2.6c1.02,0,1.45,0.57,1.48,1.55
				h-0.64c-0.02-0.57-0.2-1.05-0.83-1.05c-0.85,0-0.97,0.94-0.97,2.09c0,1.16,0.11,2.09,0.97,2.09c0.75,0,0.85-0.7,0.88-1.31H363.74
				z"/>
			<path d="M364.29,51.49h0.59v1.67h0.01c0.15-0.31,0.57-0.53,0.9-0.53c0.97,0,0.97,0.74,0.97,1.19v2.66h-0.59V53.9
				c0-0.29-0.02-0.76-0.55-0.76c-0.32,0-0.74,0.22-0.74,0.76v2.59h-0.59V51.49z"/>
			<path d="M368.02,54.69c0,0.58,0,1.44,0.72,1.44c0.56,0,0.64-0.58,0.64-0.87h0.59c0,0.4-0.23,1.33-1.26,1.33
				c-0.92,0-1.3-0.63-1.3-1.93c0-0.93,0.18-2.02,1.34-2.02c1.15,0,1.25,1,1.25,1.81v0.24H368.02z M369.38,54.22v-0.2
				c0-0.42-0.13-0.92-0.65-0.92c-0.62,0-0.69,0.76-0.69,0.98v0.14H369.38z"/>
			<path d="M372.43,53.88c0-0.36-0.15-0.78-0.59-0.78c-0.36,0-0.74,0.18-0.74,1.55c0,0.48,0.01,1.47,0.71,1.47
				c0.5,0,0.62-0.53,0.62-0.94h0.59c0,0.59-0.29,1.4-1.23,1.4c-0.92,0-1.3-0.63-1.3-1.93c0-0.93,0.18-2.02,1.34-2.02
				c1.03,0,1.2,0.81,1.2,1.24H372.43z"/>
			<path d="M376.42,56.49h-0.69l-1.04-1.86l-0.48,0.59v1.27h-0.59v-5h0.59v2.98h0.01l1.32-1.73h0.69l-1.14,1.42L376.42,56.49z"/>
			<path d="M378.34,53.84c0-0.48-0.13-0.74-0.55-0.74c-0.19,0-0.61,0.05-0.61,0.57c0,0.45,0.46,0.53,0.92,0.68
				c0.45,0.15,0.92,0.31,0.92,1.06c0,0.78-0.51,1.18-1.21,1.18c-1.27,0-1.29-0.95-1.29-1.33h0.59c0,0.46,0.12,0.87,0.7,0.87
				c0.19,0,0.62-0.09,0.62-0.62c0-0.5-0.47-0.62-0.92-0.76c-0.46-0.15-0.92-0.29-0.92-1.06c0-0.7,0.55-1.04,1.2-1.04
				c1.09,0,1.14,0.76,1.14,1.2H378.34z"/>
		</g>
	</g>
	<g>
		<g id="XMLID_11_">
			<path d="M265.01,70.16h0.83l1.34,5h-0.64l-0.36-1.37h-1.6l-0.37,1.37h-0.64L265.01,70.16z M264.71,73.28h1.34l-0.64-2.42h-0.01
				L264.71,73.28z"/>
			<path d="M270.59,73.44c-0.06,0.95-0.43,1.81-1.52,1.81c-1.42,0-1.61-1.34-1.61-2.6s0.23-2.6,1.61-2.6c1.02,0,1.45,0.57,1.48,1.55
				h-0.64c-0.02-0.57-0.2-1.05-0.83-1.05c-0.85,0-0.97,0.94-0.97,2.09c0,1.16,0.11,2.09,0.97,2.09c0.75,0,0.85-0.7,0.88-1.31H270.59
				z"/>
			<path d="M274.12,75.16h-0.62v-2.41h-1.72v2.41h-0.62v-5h0.62v2.04h1.72v-2.04h0.62V75.16z"/>
			<path d="M279.06,75.16h-0.56V74.7h-0.01c-0.08,0.28-0.41,0.56-0.81,0.56c-0.89,0-1.23-0.8-1.23-1.97c0-0.78,0.12-1.98,1.18-1.98
				c0.34,0,0.69,0.2,0.83,0.53h0.01v-1.67h0.59V75.16z M277.75,74.75c0.64,0,0.76-0.61,0.76-1.47c0-0.73-0.12-1.47-0.76-1.47
				c-0.54,0-0.69,0.57-0.69,1.47S277.21,74.75,277.75,74.75z"/>
			<path d="M280.32,73.35c0,0.58,0,1.44,0.72,1.44c0.56,0,0.64-0.58,0.64-0.87h0.59c0,0.4-0.23,1.33-1.26,1.33
				c-0.92,0-1.3-0.63-1.3-1.93c0-0.93,0.18-2.02,1.34-2.02c1.15,0,1.25,1,1.25,1.81v0.24H280.32z M281.67,72.89v-0.2
				c0-0.42-0.13-0.92-0.65-0.92c-0.62,0-0.69,0.76-0.69,0.98v0.14H281.67z"/>
			<path d="M282.93,70.16h0.59v1.67h0.01c0.13-0.33,0.48-0.53,0.87-0.53c1.01,0,1.14,1.19,1.14,1.98c0,1.06-0.36,1.97-1.23,1.97
				c-0.41,0-0.74-0.28-0.81-0.56h-0.01v0.46h-0.56V70.16z M284.24,74.75c0.54,0,0.69-0.61,0.69-1.47c0-0.9-0.15-1.47-0.69-1.47
				c-0.64,0-0.76,0.74-0.76,1.47C283.49,74.04,283.61,74.75,284.24,74.75z"/>
			<path d="M286.21,70.16h0.59v0.67h-0.59V70.16z M286.21,71.4h0.59v3.75h-0.59V71.4z"/>
			<path d="M287.78,70.31h0.59v1.09h0.65v0.46h-0.65v2.41c0,0.3,0.08,0.42,0.39,0.42c0.13,0,0.2-0.01,0.26-0.02v0.48
				c-0.08,0.02-0.23,0.04-0.48,0.04c-0.62,0-0.76-0.25-0.76-0.74v-2.59h-0.55V71.4h0.55V70.31z"/>
			<path d="M291.27,70.31h0.59v1.09h0.65v0.46h-0.65v2.41c0,0.3,0.08,0.42,0.39,0.42c0.13,0,0.2-0.01,0.26-0.02v0.48
				c-0.08,0.02-0.23,0.04-0.48,0.04c-0.62,0-0.76-0.25-0.76-0.74v-2.59h-0.55V71.4h0.55V70.31z"/>
			<path d="M292.91,71.4h0.59v0.56h0.01c0.17-0.36,0.39-0.66,0.81-0.66c0.12,0,0.2,0.01,0.26,0.04v0.57
				c-0.06-0.01-0.13-0.03-0.32-0.03c-0.29,0-0.77,0.27-0.77,0.89v2.37h-0.59V71.4z"/>
			<path d="M294.89,72.54c0-0.85,0.36-1.23,1.26-1.23c1.14,0,1.14,0.69,1.14,1.08v2.09c0,0.16-0.01,0.3,0.18,0.3
				c0.08,0,0.11-0.01,0.14-0.04v0.42c-0.05,0.01-0.2,0.04-0.34,0.04c-0.22,0-0.51,0-0.53-0.48h-0.01c-0.19,0.34-0.55,0.54-0.9,0.54
				c-0.7,0-1.02-0.42-1.02-1.09c0-0.53,0.22-0.89,0.71-1.04l0.79-0.24c0.43-0.13,0.43-0.26,0.43-0.57c0-0.36-0.21-0.55-0.6-0.55
				c-0.64,0-0.64,0.59-0.64,0.74v0.04H294.89z M296.7,73.11c-0.23,0.23-0.74,0.27-1,0.44c-0.19,0.12-0.29,0.27-0.29,0.59
				c0,0.39,0.13,0.64,0.53,0.64c0.39,0,0.76-0.32,0.76-0.71V73.11z"/>
			<path d="M298.09,71.4h0.56v0.44h0.01c0.16-0.34,0.55-0.54,0.91-0.54c0.99,0,0.99,0.74,0.99,1.19v2.66h-0.59v-2.59
				c0-0.29-0.02-0.76-0.55-0.76c-0.32,0-0.74,0.22-0.74,0.76v2.59h-0.59V71.4z"/>
			<path d="M302.94,72.5c0-0.48-0.13-0.74-0.55-0.74c-0.19,0-0.61,0.05-0.61,0.57c0,0.45,0.46,0.53,0.92,0.68
				c0.45,0.15,0.92,0.31,0.92,1.06c0,0.78-0.51,1.18-1.21,1.18c-1.27,0-1.29-0.95-1.29-1.33h0.59c0,0.46,0.12,0.87,0.7,0.87
				c0.19,0,0.62-0.09,0.62-0.62c0-0.5-0.47-0.62-0.92-0.76c-0.46-0.15-0.92-0.29-0.92-1.06c0-0.7,0.55-1.04,1.2-1.04
				c1.09,0,1.14,0.76,1.14,1.2H302.94z"/>
			<path d="M304.35,71.87h-0.55V71.4h0.55v-0.44c0-0.57,0.25-0.86,0.81-0.86h0.43v0.5h-0.27c-0.25,0-0.38,0.1-0.38,0.36v0.44h0.64
				v0.46h-0.64v3.29h-0.59V71.87z"/>
			<path d="M306.48,73.35c0,0.58,0,1.44,0.72,1.44c0.56,0,0.64-0.58,0.64-0.87h0.59c0,0.4-0.23,1.33-1.26,1.33
				c-0.92,0-1.3-0.63-1.3-1.93c0-0.93,0.18-2.02,1.34-2.02c1.15,0,1.25,1,1.25,1.81v0.24H306.48z M307.84,72.89v-0.2
				c0-0.42-0.13-0.92-0.65-0.92c-0.62,0-0.69,0.76-0.69,0.98v0.14H307.84z"/>
			<path d="M309.1,71.4h0.59v0.56h0.01c0.17-0.36,0.39-0.66,0.81-0.66c0.12,0,0.2,0.01,0.26,0.04v0.57
				c-0.06-0.01-0.13-0.03-0.32-0.03c-0.29,0-0.77,0.27-0.77,0.89v2.37h-0.59V71.4z"/>
			<path d="M312.78,72.5c0-0.48-0.13-0.74-0.55-0.74c-0.19,0-0.61,0.05-0.61,0.57c0,0.45,0.46,0.53,0.92,0.68
				c0.45,0.15,0.92,0.31,0.92,1.06c0,0.78-0.51,1.18-1.21,1.18c-1.27,0-1.29-0.95-1.29-1.33h0.59c0,0.46,0.12,0.87,0.7,0.87
				c0.19,0,0.62-0.09,0.62-0.62c0-0.5-0.47-0.62-0.92-0.76c-0.46-0.15-0.92-0.29-0.92-1.06c0-0.7,0.55-1.04,1.2-1.04
				c1.09,0,1.14,0.76,1.14,1.2H312.78z"/>
		</g>
	</g>
	<g>
		<g id="XMLID_12_">
			<path d="M323.67,17.97h0.83l1.34,5h-0.64l-0.36-1.37h-1.6l-0.37,1.37h-0.64L323.67,17.97z M323.37,21.09h1.34l-0.64-2.42h-0.01
				L323.37,21.09z"/>
			<path d="M329.25,21.25c-0.06,0.95-0.43,1.81-1.52,1.81c-1.42,0-1.61-1.34-1.61-2.6s0.23-2.6,1.61-2.6c1.02,0,1.45,0.57,1.48,1.55
				h-0.64c-0.02-0.57-0.2-1.05-0.83-1.05c-0.85,0-0.97,0.94-0.97,2.09c0,1.16,0.11,2.09,0.97,2.09c0.75,0,0.85-0.7,0.88-1.31H329.25
				z"/>
			<path d="M332.77,22.97h-0.62v-2.41h-1.72v2.41h-0.62v-5h0.62v2.04h1.72v-2.04h0.62V22.97z"/>
			<path d="M337.02,20.36c0-0.36-0.15-0.78-0.59-0.78c-0.36,0-0.74,0.18-0.74,1.55c0,0.48,0.01,1.47,0.71,1.47
				c0.5,0,0.62-0.53,0.62-0.94h0.59c0,0.59-0.29,1.4-1.23,1.4c-0.92,0-1.3-0.63-1.3-1.93c0-0.93,0.18-2.02,1.34-2.02
				c1.03,0,1.2,0.81,1.2,1.24H337.02z"/>
			<path d="M338.22,19.21h0.59v0.56h0.01c0.17-0.36,0.39-0.66,0.81-0.66c0.12,0,0.2,0.01,0.26,0.04v0.57
				c-0.06-0.01-0.13-0.03-0.32-0.03c-0.29,0-0.77,0.27-0.77,0.89v2.37h-0.59V19.21z"/>
			<path d="M340.78,21.16c0,0.58,0,1.44,0.72,1.44c0.56,0,0.64-0.58,0.64-0.87h0.59c0,0.4-0.23,1.33-1.26,1.33
				c-0.92,0-1.3-0.63-1.3-1.93c0-0.93,0.18-2.02,1.34-2.02c1.15,0,1.25,1,1.25,1.81v0.24H340.78z M342.14,20.7v-0.2
				c0-0.42-0.13-0.92-0.65-0.92c-0.62,0-0.69,0.76-0.69,0.98v0.14H342.14z"/>
			<path d="M345.87,22.97h-0.56v-0.46h-0.01c-0.08,0.28-0.41,0.56-0.81,0.56c-0.89,0-1.23-0.8-1.23-1.97c0-0.78,0.12-1.98,1.18-1.98
				c0.34,0,0.69,0.2,0.83,0.53h0.01v-1.67h0.59V22.97z M344.56,22.56c0.64,0,0.76-0.61,0.76-1.47c0-0.73-0.12-1.47-0.76-1.47
				c-0.54,0-0.69,0.57-0.69,1.47S344.02,22.56,344.56,22.56z"/>
			<path d="M346.67,17.97h0.59v0.67h-0.59V17.97z M346.67,19.21h0.59v3.75h-0.59V19.21z"/>
			<path d="M348.24,18.12h0.59v1.09h0.65v0.46h-0.65v2.41c0,0.3,0.08,0.42,0.39,0.42c0.13,0,0.2-0.01,0.26-0.02v0.48
				c-0.08,0.02-0.23,0.04-0.48,0.04c-0.62,0-0.76-0.25-0.76-0.74v-2.59h-0.55v-0.46h0.55V18.12z"/>
			<path d="M351.74,18.12h0.59v1.09h0.65v0.46h-0.65v2.41c0,0.3,0.08,0.42,0.39,0.42c0.13,0,0.2-0.01,0.26-0.02v0.48
				c-0.08,0.02-0.23,0.04-0.48,0.04c-0.62,0-0.76-0.25-0.76-0.74v-2.59h-0.55v-0.46h0.55V18.12z"/>
			<path d="M353.37,19.21h0.59v0.56h0.01c0.17-0.36,0.39-0.66,0.81-0.66c0.12,0,0.2,0.01,0.26,0.04v0.57
				c-0.06-0.01-0.13-0.03-0.32-0.03c-0.29,0-0.77,0.27-0.77,0.89v2.37h-0.59V19.21z"/>
			<path d="M355.35,20.35c0-0.85,0.36-1.23,1.26-1.23c1.14,0,1.14,0.69,1.14,1.08v2.09c0,0.16-0.01,0.3,0.18,0.3
				c0.08,0,0.11-0.01,0.14-0.04v0.42c-0.05,0.01-0.2,0.04-0.34,0.04c-0.22,0-0.51,0-0.53-0.48h-0.01c-0.19,0.34-0.55,0.54-0.9,0.54
				c-0.7,0-1.02-0.42-1.02-1.09c0-0.53,0.22-0.89,0.71-1.04l0.79-0.24c0.43-0.13,0.43-0.26,0.43-0.57c0-0.36-0.21-0.55-0.6-0.55
				c-0.64,0-0.64,0.59-0.64,0.74v0.04H355.35z M357.17,20.92c-0.23,0.23-0.74,0.27-1,0.44c-0.19,0.12-0.29,0.27-0.29,0.59
				c0,0.39,0.13,0.64,0.53,0.64c0.39,0,0.76-0.32,0.76-0.71V20.92z"/>
			<path d="M358.55,19.21h0.56v0.44h0.01c0.16-0.34,0.55-0.54,0.91-0.54c0.99,0,0.99,0.74,0.99,1.19v2.66h-0.59v-2.59
				c0-0.29-0.02-0.76-0.55-0.76c-0.32,0-0.74,0.22-0.74,0.76v2.59h-0.59V19.21z"/>
			<path d="M363.4,20.31c0-0.48-0.13-0.74-0.55-0.74c-0.19,0-0.61,0.05-0.61,0.57c0,0.45,0.46,0.53,0.92,0.68
				c0.45,0.15,0.92,0.31,0.92,1.06c0,0.78-0.51,1.18-1.21,1.18c-1.27,0-1.29-0.95-1.29-1.33h0.59c0,0.46,0.12,0.87,0.7,0.87
				c0.19,0,0.62-0.09,0.62-0.62c0-0.5-0.47-0.62-0.92-0.76c-0.46-0.15-0.92-0.29-0.92-1.06c0-0.7,0.55-1.04,1.2-1.04
				c1.09,0,1.14,0.76,1.14,1.2H363.4z"/>
			<path d="M364.82,19.68h-0.55v-0.46h0.55v-0.44c0-0.57,0.25-0.86,0.81-0.86h0.43v0.5h-0.27c-0.25,0-0.38,0.1-0.38,0.36v0.44h0.64
				v0.46h-0.64v3.29h-0.59V19.68z"/>
			<path d="M366.94,21.16c0,0.58,0,1.44,0.72,1.44c0.56,0,0.64-0.58,0.64-0.87h0.59c0,0.4-0.23,1.33-1.26,1.33
				c-0.92,0-1.3-0.63-1.3-1.93c0-0.93,0.18-2.02,1.34-2.02c1.15,0,1.25,1,1.25,1.81v0.24H366.94z M368.3,20.7v-0.2
				c0-0.42-0.13-0.92-0.65-0.92c-0.62,0-0.69,0.76-0.69,0.98v0.14H368.3z"/>
			<path d="M369.56,19.21h0.59v0.56h0.01c0.17-0.36,0.39-0.66,0.81-0.66c0.12,0,0.2,0.01,0.26,0.04v0.57
				c-0.06-0.01-0.13-0.03-0.32-0.03c-0.29,0-0.77,0.27-0.77,0.89v2.37h-0.59V19.21z"/>
			<path d="M373.25,20.31c0-0.48-0.13-0.74-0.55-0.74c-0.19,0-0.61,0.05-0.61,0.57c0,0.45,0.46,0.53,0.92,0.68
				c0.45,0.15,0.92,0.31,0.92,1.06c0,0.78-0.51,1.18-1.21,1.18c-1.27,0-1.29-0.95-1.29-1.33h0.59c0,0.46,0.12,0.87,0.7,0.87
				c0.19,0,0.62-0.09,0.62-0.62c0-0.5-0.47-0.62-0.92-0.76c-0.46-0.15-0.92-0.29-0.92-1.06c0-0.7,0.55-1.04,1.2-1.04
				c1.09,0,1.14,0.76,1.14,1.2H373.25z"/>
		</g>
	</g>
	<g>
		<g id="XMLID_13_">
			<path d="M351.86,109.24c-0.06,0.95-0.43,1.81-1.52,1.81c-1.42,0-1.61-1.34-1.61-2.6s0.23-2.6,1.61-2.6
				c1.02,0,1.45,0.57,1.48,1.55h-0.64c-0.02-0.57-0.2-1.05-0.83-1.05c-0.85,0-0.97,0.94-0.97,2.09c0,1.16,0.11,2.09,0.97,2.09
				c0.75,0,0.85-0.7,0.88-1.31H351.86z"/>
			<path d="M352.41,107.21H353v0.56h0.01c0.17-0.36,0.39-0.66,0.81-0.66c0.12,0,0.2,0.01,0.26,0.04v0.57
				c-0.06-0.01-0.13-0.03-0.32-0.03c-0.29,0-0.77,0.27-0.77,0.89v2.37h-0.59V107.21z"/>
			<path d="M354.97,109.15c0,0.58,0,1.44,0.72,1.44c0.56,0,0.64-0.58,0.64-0.87h0.59c0,0.4-0.23,1.33-1.26,1.33
				c-0.92,0-1.3-0.63-1.3-1.93c0-0.93,0.18-2.02,1.34-2.02c1.15,0,1.25,1,1.25,1.81v0.24H354.97z M356.33,108.69v-0.2
				c0-0.42-0.13-0.92-0.65-0.92c-0.62,0-0.69,0.76-0.69,0.98v0.14H356.33z"/>
			<path d="M360.06,110.96h-0.56v-0.46h-0.01c-0.08,0.28-0.41,0.56-0.81,0.56c-0.89,0-1.23-0.8-1.23-1.97
				c0-0.78,0.12-1.98,1.18-1.98c0.34,0,0.69,0.2,0.83,0.53h0.01v-1.67h0.59V110.96z M358.75,110.55c0.64,0,0.76-0.61,0.76-1.47
				c0-0.73-0.12-1.47-0.76-1.47c-0.54,0-0.69,0.57-0.69,1.47S358.22,110.55,358.75,110.55z"/>
			<path d="M360.87,105.96h0.59v0.67h-0.59V105.96z M360.87,107.21h0.59v3.75h-0.59V107.21z"/>
			<path d="M362.44,106.11h0.59v1.09h0.65v0.46h-0.65v2.41c0,0.3,0.08,0.42,0.39,0.42c0.13,0,0.2-0.01,0.26-0.02v0.48
				c-0.08,0.02-0.23,0.04-0.48,0.04c-0.62,0-0.76-0.25-0.76-0.74v-2.59h-0.55v-0.46h0.55V106.11z"/>
			<path d="M367.54,108.35c0-0.36-0.15-0.78-0.59-0.78c-0.36,0-0.74,0.18-0.74,1.55c0,0.48,0.01,1.47,0.71,1.47
				c0.5,0,0.62-0.53,0.62-0.94h0.59c0,0.59-0.29,1.4-1.23,1.4c-0.92,0-1.3-0.63-1.3-1.93c0-0.93,0.18-2.02,1.34-2.02
				c1.03,0,1.2,0.81,1.2,1.24H367.54z"/>
			<path d="M368.64,108.34c0-0.85,0.36-1.23,1.26-1.23c1.14,0,1.14,0.69,1.14,1.08v2.09c0,0.16-0.01,0.3,0.18,0.3
				c0.08,0,0.11-0.01,0.14-0.04v0.42c-0.05,0.01-0.2,0.04-0.34,0.04c-0.22,0-0.51,0-0.53-0.48h-0.01c-0.19,0.34-0.55,0.54-0.9,0.54
				c-0.7,0-1.02-0.42-1.02-1.09c0-0.53,0.22-0.89,0.71-1.04l0.79-0.24c0.43-0.13,0.43-0.26,0.43-0.57c0-0.36-0.21-0.55-0.6-0.55
				c-0.64,0-0.64,0.59-0.64,0.74v0.04H368.64z M370.46,108.92c-0.23,0.23-0.74,0.27-1,0.44c-0.19,0.12-0.29,0.27-0.29,0.59
				c0,0.39,0.13,0.64,0.53,0.64c0.39,0,0.76-0.32,0.76-0.71V108.92z"/>
			<path d="M371.84,107.21h0.59v0.56h0.01c0.17-0.36,0.39-0.66,0.81-0.66c0.12,0,0.2,0.01,0.26,0.04v0.57
				c-0.06-0.01-0.13-0.03-0.32-0.03c-0.29,0-0.77,0.27-0.77,0.89v2.37h-0.59V107.21z"/>
			<path d="M376.39,110.96h-0.56v-0.46h-0.01c-0.08,0.28-0.41,0.56-0.81,0.56c-0.89,0-1.23-0.8-1.23-1.97
				c0-0.78,0.12-1.98,1.18-1.98c0.34,0,0.69,0.2,0.83,0.53h0.01v-1.67h0.59V110.96z M375.08,110.55c0.64,0,0.76-0.61,0.76-1.47
				c0-0.73-0.12-1.47-0.76-1.47c-0.54,0-0.69,0.57-0.69,1.47S374.54,110.55,375.08,110.55z"/>
			<path d="M378.77,108.31c0-0.48-0.13-0.74-0.55-0.74c-0.19,0-0.61,0.05-0.61,0.57c0,0.45,0.46,0.53,0.92,0.68
				c0.45,0.15,0.92,0.31,0.92,1.06c0,0.78-0.51,1.18-1.21,1.18c-1.27,0-1.29-0.95-1.29-1.33h0.59c0,0.46,0.12,0.87,0.7,0.87
				c0.19,0,0.62-0.09,0.62-0.62c0-0.5-0.47-0.62-0.92-0.76c-0.46-0.15-0.92-0.29-0.92-1.06c0-0.7,0.55-1.04,1.2-1.04
				c1.09,0,1.14,0.76,1.14,1.2H378.77z"/>
		</g>
	</g>
	<g id="XMLID_1_">
		<path d="M20.23,8.77h-0.62V4.32h-1.25V3.77h3.13v0.55h-1.26V8.77z"/>
		<path d="M21.41,5.02H22v0.56h0.01c0.17-0.36,0.39-0.66,0.81-0.66c0.12,0,0.2,0.01,0.26,0.04v0.57c-0.06-0.01-0.13-0.03-0.31-0.03
			C22.48,5.51,22,5.78,22,6.4v2.37h-0.59V5.02z"/>
		<path d="M23.52,3.77h0.59v0.67h-0.59V3.77z M23.52,5.02h0.59v3.75h-0.59V5.02z"/>
		<path d="M24.95,3.77h0.59v5h-0.59V3.77z"/>
		<path d="M26.38,3.77h0.59v5h-0.59V3.77z"/>
		<path d="M27.8,3.77h0.59v0.67H27.8V3.77z M27.8,5.02h0.59v3.75H27.8V5.02z"/>
		<path d="M30.36,4.92c1.09,0,1.35,0.92,1.35,1.98s-0.27,1.97-1.35,1.97c-1.09,0-1.35-0.92-1.35-1.97S29.28,4.92,30.36,4.92z
			 M31.1,6.9c0-0.81-0.11-1.51-0.75-1.51c-0.6,0-0.72,0.7-0.72,1.51s0.12,1.51,0.72,1.51C30.97,8.41,31.1,7.71,31.1,6.9z"/>
		<path d="M32.3,5.02h0.56v0.44h0.01c0.16-0.34,0.55-0.54,0.91-0.54c0.99,0,0.99,0.74,0.99,1.19v2.66h-0.59V6.18
			c0-0.29-0.02-0.76-0.55-0.76c-0.31,0-0.74,0.22-0.74,0.76v2.59H32.3V5.02z"/>
		<path d="M37.16,6.12c0-0.48-0.13-0.74-0.55-0.74c-0.19,0-0.61,0.05-0.61,0.57c0,0.45,0.46,0.53,0.92,0.68
			c0.45,0.15,0.92,0.31,0.92,1.06c0,0.78-0.51,1.18-1.21,1.18c-1.27,0-1.29-0.95-1.29-1.33h0.59c0,0.46,0.12,0.87,0.7,0.87
			c0.19,0,0.62-0.09,0.62-0.62c0-0.5-0.47-0.62-0.92-0.76c-0.46-0.15-0.92-0.29-0.92-1.06c0-0.7,0.55-1.04,1.2-1.04
			c1.09,0,1.14,0.76,1.14,1.2H37.16z"/>
		<path d="M41.24,4.92c1.09,0,1.35,0.92,1.35,1.98s-0.27,1.97-1.35,1.97c-1.09,0-1.35-0.92-1.35-1.97S40.16,4.92,41.24,4.92z
			 M41.98,6.9c0-0.81-0.11-1.51-0.75-1.51c-0.6,0-0.72,0.7-0.72,1.51s0.12,1.51,0.72,1.51C41.85,8.41,41.98,7.71,41.98,6.9z"/>
		<path d="M43.36,5.48h-0.55V5.02h0.55V4.58c0-0.57,0.25-0.86,0.81-0.86h0.43v0.5h-0.27c-0.25,0-0.38,0.1-0.38,0.36v0.44h0.64v0.46
			h-0.64v3.29h-0.59V5.48z"/>
		<path d="M49.15,8.77h-0.56V8.31h-0.01c-0.08,0.28-0.41,0.56-0.81,0.56c-0.89,0-1.23-0.8-1.23-1.97c0-0.78,0.12-1.98,1.18-1.98
			c0.34,0,0.69,0.2,0.83,0.53h0.01V3.77h0.59V8.77z M47.84,8.37c0.64,0,0.76-0.61,0.76-1.47c0-0.73-0.12-1.47-0.76-1.47
			c-0.54,0-0.69,0.57-0.69,1.47S47.3,8.37,47.84,8.37z"/>
		<path d="M51.08,4.92c1.09,0,1.35,0.92,1.35,1.98s-0.27,1.97-1.35,1.97c-1.09,0-1.35-0.92-1.35-1.97S50,4.92,51.08,4.92z
			 M51.82,6.9c0-0.81-0.11-1.51-0.75-1.51c-0.6,0-0.72,0.7-0.72,1.51s0.12,1.51,0.72,1.51C51.69,8.41,51.82,7.71,51.82,6.9z"/>
		<path d="M53.06,3.77h0.59v5h-0.59V3.77z"/>
		<path d="M54.49,3.77h0.59v5h-0.59V3.77z"/>
		<path d="M55.79,6.15c0-0.85,0.36-1.23,1.26-1.23c1.14,0,1.14,0.69,1.14,1.08v2.09c0,0.16-0.01,0.3,0.18,0.3
			c0.08,0,0.11-0.01,0.14-0.04v0.42c-0.05,0.01-0.2,0.04-0.34,0.04c-0.22,0-0.51,0-0.53-0.48h-0.01c-0.19,0.34-0.55,0.54-0.9,0.54
			c-0.7,0-1.02-0.42-1.02-1.09c0-0.53,0.22-0.89,0.71-1.04L57.2,6.5c0.43-0.13,0.43-0.26,0.43-0.57c0-0.36-0.21-0.55-0.6-0.55
			c-0.64,0-0.64,0.59-0.64,0.74v0.04H55.79z M57.6,6.73c-0.23,0.23-0.74,0.27-1,0.44c-0.19,0.12-0.29,0.27-0.29,0.59
			c0,0.39,0.13,0.64,0.53,0.64c0.39,0,0.76-0.32,0.76-0.71V6.73z"/>
		<path d="M58.99,5.02h0.59v0.56h0.01c0.17-0.36,0.39-0.66,0.81-0.66c0.12,0,0.2,0.01,0.26,0.04v0.57
			c-0.06-0.01-0.13-0.03-0.31-0.03c-0.29,0-0.77,0.27-0.77,0.89v2.37h-0.59V5.02z"/>
		<path d="M62.67,6.12c0-0.48-0.13-0.74-0.55-0.74c-0.19,0-0.61,0.05-0.61,0.57c0,0.45,0.46,0.53,0.92,0.68
			c0.45,0.15,0.92,0.31,0.92,1.06c0,0.78-0.51,1.18-1.21,1.18c-1.27,0-1.29-0.95-1.29-1.33h0.59c0,0.46,0.12,0.87,0.7,0.87
			c0.19,0,0.62-0.09,0.62-0.62c0-0.5-0.47-0.62-0.92-0.76c-0.46-0.15-0.92-0.29-0.92-1.06c0-0.7,0.55-1.04,1.2-1.04
			c1.09,0,1.14,0.76,1.14,1.2H62.67z"/>
	</g>
	<g id="XMLID_9_">
		<path d="M34.02,103.17h0.8l1.65,4.17h0.01v-4.17h0.62v5h-0.85l-1.6-4.05h-0.01v4.05h-0.62V103.17z"/>
		<path d="M39.06,104.32c1.09,0,1.35,0.92,1.35,1.98s-0.27,1.97-1.35,1.97c-1.08,0-1.35-0.92-1.35-1.97S37.97,104.32,39.06,104.32z
			 M39.79,106.3c0-0.81-0.11-1.51-0.75-1.51c-0.6,0-0.72,0.7-0.72,1.51s0.12,1.51,0.72,1.51C39.67,107.81,39.79,107.11,39.79,106.3z
			"/>
		<path d="M41,104.42h0.56v0.44h0.01c0.16-0.34,0.55-0.54,0.91-0.54c0.99,0,0.99,0.74,0.99,1.19v2.66h-0.59v-2.59
			c0-0.29-0.02-0.76-0.55-0.76c-0.32,0-0.74,0.22-0.74,0.76v2.59H41V104.42z"/>
		<path d="M44.23,105.91h1.71v0.55h-1.71V105.91z"/>
		<path d="M46.7,104.42h0.56v0.46h0.01c0.08-0.28,0.41-0.56,0.81-0.56c0.89,0,1.23,0.79,1.23,1.91c0,0.85-0.25,2.04-1.23,2.04
			c-0.34,0-0.65-0.2-0.78-0.52h-0.01v1.66H46.7V104.42z M48.01,107.77c0.54,0,0.69-0.57,0.69-1.54c0-0.83-0.15-1.4-0.69-1.4
			c-0.64,0-0.76,0.61-0.76,1.47C47.26,107.03,47.37,107.77,48.01,107.77z"/>
		<path d="M49.94,104.42h0.59v0.56h0.01c0.17-0.36,0.39-0.66,0.81-0.66c0.12,0,0.2,0.01,0.26,0.04v0.57
			c-0.06-0.01-0.13-0.03-0.32-0.03c-0.29,0-0.77,0.27-0.77,0.89v2.37h-0.59V104.42z"/>
		<path d="M52.51,106.37c0,0.58,0,1.44,0.72,1.44c0.56,0,0.64-0.58,0.64-0.87h0.59c0,0.4-0.23,1.33-1.26,1.33
			c-0.92,0-1.3-0.63-1.3-1.93c0-0.93,0.18-2.02,1.34-2.02c1.15,0,1.25,1,1.25,1.81v0.24H52.51z M53.86,105.91v-0.2
			c0-0.42-0.13-0.92-0.65-0.92c-0.62,0-0.69,0.76-0.69,0.98v0.14H53.86z"/>
		<path d="M55.12,104.42h0.56v0.46h0.01c0.08-0.28,0.41-0.56,0.81-0.56c0.89,0,1.23,0.79,1.23,1.91c0,0.85-0.25,2.04-1.23,2.04
			c-0.34,0-0.65-0.2-0.78-0.52h-0.01v1.66h-0.59V104.42z M56.43,107.77c0.54,0,0.69-0.57,0.69-1.54c0-0.83-0.15-1.4-0.69-1.4
			c-0.64,0-0.76,0.61-0.76,1.47C55.68,107.03,55.8,107.77,56.43,107.77z"/>
		<path d="M58.27,105.56c0-0.85,0.36-1.23,1.26-1.23c1.14,0,1.14,0.69,1.14,1.08v2.09c0,0.16-0.01,0.3,0.18,0.3
			c0.08,0,0.11-0.01,0.14-0.04v0.42c-0.05,0.01-0.2,0.04-0.34,0.04c-0.22,0-0.51,0-0.53-0.48h-0.01c-0.19,0.34-0.55,0.54-0.9,0.54
			c-0.7,0-1.02-0.42-1.02-1.09c0-0.53,0.22-0.89,0.71-1.04l0.79-0.24c0.43-0.13,0.43-0.26,0.43-0.57c0-0.36-0.21-0.55-0.6-0.55
			c-0.64,0-0.64,0.59-0.64,0.74v0.04H58.27z M60.09,106.13c-0.23,0.23-0.74,0.27-1,0.44c-0.19,0.12-0.29,0.27-0.29,0.59
			c0,0.39,0.13,0.64,0.53,0.64c0.39,0,0.76-0.32,0.76-0.71V106.13z"/>
		<path d="M61.51,103.17h0.59v0.67h-0.59V103.17z M61.51,104.42h0.59v3.75h-0.59V104.42z"/>
		<path d="M65.37,108.18h-0.56v-0.46H64.8c-0.08,0.28-0.41,0.56-0.81,0.56c-0.89,0-1.23-0.8-1.23-1.97c0-0.78,0.12-1.98,1.18-1.98
			c0.34,0,0.69,0.2,0.83,0.53h0.01v-1.67h0.59V108.18z M64.06,107.77c0.64,0,0.76-0.61,0.76-1.47c0-0.73-0.12-1.47-0.76-1.47
			c-0.54,0-0.69,0.57-0.69,1.47S63.52,107.77,64.06,107.77z"/>
		<path d="M70.29,108.18h-0.56v-0.46h-0.01c-0.08,0.28-0.41,0.56-0.81,0.56c-0.89,0-1.23-0.8-1.23-1.97c0-0.78,0.12-1.98,1.18-1.98
			c0.34,0,0.69,0.2,0.83,0.53h0.01v-1.67h0.59V108.18z M68.98,107.77c0.64,0,0.76-0.61,0.76-1.47c0-0.73-0.12-1.47-0.76-1.47
			c-0.54,0-0.69,0.57-0.69,1.47S68.44,107.77,68.98,107.77z"/>
		<path d="M71.55,106.37c0,0.58,0,1.44,0.72,1.44c0.56,0,0.64-0.58,0.64-0.87h0.59c0,0.4-0.23,1.33-1.26,1.33
			c-0.92,0-1.3-0.63-1.3-1.93c0-0.93,0.18-2.02,1.34-2.02c1.15,0,1.25,1,1.25,1.81v0.24H71.55z M72.91,105.91v-0.2
			c0-0.42-0.13-0.92-0.65-0.92c-0.62,0-0.69,0.76-0.69,0.98v0.14H72.91z"/>
		<path d="M74.17,103.17h0.59v1.67h0.01c0.13-0.33,0.48-0.53,0.87-0.53c1.01,0,1.14,1.19,1.14,1.98c0,1.06-0.36,1.97-1.23,1.97
			c-0.41,0-0.74-0.28-0.81-0.56h-0.01v0.46h-0.56V103.17z M75.48,107.77c0.54,0,0.69-0.61,0.69-1.47c0-0.9-0.15-1.47-0.69-1.47
			c-0.64,0-0.76,0.74-0.76,1.47C74.72,107.06,74.84,107.77,75.48,107.77z"/>
		<path d="M77.44,103.17h0.59v0.67h-0.59V103.17z M77.44,104.42h0.59v3.75h-0.59V104.42z"/>
		<path d="M79.01,103.33h0.59v1.09h0.65v0.46H79.6v2.41c0,0.3,0.08,0.42,0.39,0.42c0.13,0,0.2-0.01,0.26-0.02v0.48
			c-0.08,0.02-0.23,0.04-0.48,0.04c-0.62,0-0.76-0.25-0.76-0.74v-2.59h-0.55v-0.46h0.55V103.33z"/>
		<path d="M84.12,105.56c0-0.36-0.15-0.78-0.59-0.78c-0.36,0-0.74,0.18-0.74,1.55c0,0.48,0.01,1.47,0.71,1.47
			c0.5,0,0.62-0.53,0.62-0.94h0.59c0,0.59-0.29,1.4-1.23,1.4c-0.92,0-1.3-0.63-1.3-1.93c0-0.93,0.18-2.02,1.34-2.02
			c1.03,0,1.2,0.81,1.2,1.24H84.12z"/>
		<path d="M85.22,105.56c0-0.85,0.36-1.23,1.26-1.23c1.14,0,1.14,0.69,1.14,1.08v2.09c0,0.16-0.01,0.3,0.18,0.3
			c0.08,0,0.11-0.01,0.14-0.04v0.42c-0.05,0.01-0.2,0.04-0.34,0.04c-0.22,0-0.51,0-0.53-0.48h-0.01c-0.19,0.34-0.55,0.54-0.9,0.54
			c-0.7,0-1.02-0.42-1.02-1.09c0-0.53,0.22-0.89,0.71-1.04l0.79-0.24c0.43-0.13,0.43-0.26,0.43-0.57c0-0.36-0.21-0.55-0.6-0.55
			c-0.64,0-0.64,0.59-0.64,0.74v0.04H85.22z M87.04,106.13c-0.23,0.23-0.74,0.27-1,0.44c-0.19,0.12-0.29,0.27-0.29,0.59
			c0,0.39,0.13,0.64,0.53,0.64c0.39,0,0.76-0.32,0.76-0.71V106.13z"/>
		<path d="M88.42,104.42h0.59v0.56h0.01c0.17-0.36,0.39-0.66,0.81-0.66c0.12,0,0.2,0.01,0.26,0.04v0.57
			c-0.06-0.01-0.13-0.03-0.32-0.03c-0.29,0-0.77,0.27-0.77,0.89v2.37h-0.59V104.42z"/>
		<path d="M92.96,108.18H92.4v-0.46h-0.01c-0.08,0.28-0.41,0.56-0.81,0.56c-0.89,0-1.23-0.8-1.23-1.97c0-0.78,0.12-1.98,1.18-1.98
			c0.34,0,0.69,0.2,0.83,0.53h0.01v-1.67h0.59V108.18z M91.65,107.77c0.64,0,0.76-0.61,0.76-1.47c0-0.73-0.12-1.47-0.76-1.47
			c-0.54,0-0.69,0.57-0.69,1.47S91.12,107.77,91.65,107.77z"/>
		<path d="M95.34,105.52c0-0.48-0.13-0.74-0.55-0.74c-0.19,0-0.61,0.05-0.61,0.57c0,0.45,0.46,0.53,0.92,0.68
			c0.45,0.15,0.92,0.31,0.92,1.06c0,0.78-0.51,1.18-1.21,1.18c-1.27,0-1.29-0.95-1.29-1.33h0.59c0,0.46,0.12,0.87,0.7,0.87
			c0.19,0,0.62-0.09,0.62-0.62c0-0.5-0.47-0.62-0.92-0.76c-0.46-0.15-0.92-0.29-0.92-1.06c0-0.7,0.55-1.04,1.2-1.04
			c1.09,0,1.14,0.76,1.14,1.2H95.34z"/>
	</g>
	<line class="st30" x1="65.77" y1="109.89" x2="69.53" y2="122.38"/>
	<g id="XMLID_10_">
		<path d="M105.84,99.21h1.27c0.43,0,1.55,0,1.55,1.44c0,0.93-0.59,1.45-1.44,1.45h-0.76v2.12h-0.62V99.21z M106.46,101.59h0.74
			c0.45,0,0.83-0.31,0.83-0.97c0-0.55-0.25-0.9-0.87-0.9h-0.69V101.59z"/>
		<path d="M109.19,100.46h0.59v0.56h0.01c0.17-0.36,0.39-0.66,0.81-0.66c0.12,0,0.2,0.01,0.26,0.04v0.57
			c-0.06-0.01-0.13-0.03-0.32-0.03c-0.29,0-0.77,0.27-0.77,0.89v2.37h-0.59V100.46z"/>
		<path d="M111.75,102.4c0,0.58,0,1.44,0.72,1.44c0.56,0,0.64-0.58,0.64-0.87h0.59c0,0.4-0.23,1.33-1.26,1.33
			c-0.92,0-1.3-0.63-1.3-1.93c0-0.93,0.18-2.02,1.34-2.02c1.15,0,1.25,1,1.25,1.81v0.24H111.75z M113.11,101.94v-0.2
			c0-0.42-0.13-0.92-0.65-0.92c-0.62,0-0.69,0.76-0.69,0.98v0.14H113.11z"/>
		<path d="M114.37,100.46h0.56v0.46h0.01c0.08-0.28,0.41-0.56,0.81-0.56c0.89,0,1.23,0.79,1.23,1.91c0,0.85-0.25,2.04-1.23,2.04
			c-0.34,0-0.65-0.2-0.78-0.52h-0.01v1.66h-0.59V100.46z M115.68,103.8c0.54,0,0.69-0.57,0.69-1.54c0-0.83-0.15-1.4-0.69-1.4
			c-0.64,0-0.76,0.61-0.76,1.47C114.92,103.06,115.04,103.8,115.68,103.8z"/>
		<path d="M117.52,101.59c0-0.85,0.36-1.23,1.26-1.23c1.14,0,1.14,0.69,1.14,1.08v2.09c0,0.16-0.01,0.3,0.18,0.3
			c0.08,0,0.11-0.01,0.14-0.04v0.42c-0.05,0.01-0.2,0.04-0.34,0.04c-0.22,0-0.51,0-0.53-0.48h-0.01c-0.19,0.34-0.55,0.54-0.9,0.54
			c-0.7,0-1.02-0.42-1.02-1.09c0-0.53,0.22-0.89,0.71-1.04l0.79-0.24c0.43-0.13,0.43-0.26,0.43-0.57c0-0.36-0.21-0.55-0.6-0.55
			c-0.64,0-0.64,0.59-0.64,0.74v0.04H117.52z M119.33,102.17c-0.23,0.23-0.74,0.27-1,0.44c-0.19,0.12-0.29,0.27-0.29,0.59
			c0,0.39,0.13,0.64,0.53,0.64c0.39,0,0.76-0.32,0.76-0.71V102.17z"/>
		<path d="M120.75,99.21h0.59v0.67h-0.59V99.21z M120.75,100.46h0.59v3.75h-0.59V100.46z"/>
		<path d="M124.62,104.21h-0.56v-0.46h-0.01c-0.08,0.28-0.41,0.56-0.81,0.56c-0.89,0-1.23-0.8-1.23-1.97c0-0.78,0.12-1.98,1.18-1.98
			c0.34,0,0.69,0.2,0.83,0.53h0.01v-1.67h0.59V104.21z M123.31,103.8c0.64,0,0.76-0.61,0.76-1.47c0-0.73-0.12-1.47-0.76-1.47
			c-0.54,0-0.69,0.57-0.69,1.47S122.77,103.8,123.31,103.8z"/>
		<path d="M129.54,104.21h-0.56v-0.46h-0.01c-0.08,0.28-0.41,0.56-0.81,0.56c-0.89,0-1.23-0.8-1.23-1.97c0-0.78,0.12-1.98,1.18-1.98
			c0.34,0,0.69,0.2,0.83,0.53h0.01v-1.67h0.59V104.21z M128.23,103.8c0.64,0,0.76-0.61,0.76-1.47c0-0.73-0.12-1.47-0.76-1.47
			c-0.54,0-0.69,0.57-0.69,1.47S127.69,103.8,128.23,103.8z"/>
		<path d="M130.79,102.4c0,0.58,0,1.44,0.72,1.44c0.56,0,0.64-0.58,0.64-0.87h0.59c0,0.4-0.23,1.33-1.26,1.33
			c-0.92,0-1.3-0.63-1.3-1.93c0-0.93,0.18-2.02,1.34-2.02c1.15,0,1.25,1,1.25,1.81v0.24H130.79z M132.15,101.94v-0.2
			c0-0.42-0.13-0.92-0.65-0.92c-0.62,0-0.69,0.76-0.69,0.98v0.14H132.15z"/>
		<path d="M133.41,99.21H134v1.67h0.01c0.13-0.33,0.48-0.53,0.87-0.53c1.01,0,1.14,1.19,1.14,1.98c0,1.06-0.36,1.97-1.23,1.97
			c-0.41,0-0.74-0.28-0.81-0.56h-0.01v0.46h-0.56V99.21z M134.72,103.8c0.54,0,0.69-0.61,0.69-1.47c0-0.9-0.15-1.47-0.69-1.47
			c-0.64,0-0.76,0.74-0.76,1.47C133.97,103.1,134.08,103.8,134.72,103.8z"/>
		<path d="M136.69,99.21h0.59v0.67h-0.59V99.21z M136.69,100.46h0.59v3.75h-0.59V100.46z"/>
		<path d="M138.26,99.36h0.59v1.09h0.65v0.46h-0.65v2.41c0,0.3,0.08,0.42,0.39,0.42c0.13,0,0.2-0.01,0.26-0.02v0.48
			c-0.08,0.02-0.23,0.04-0.48,0.04c-0.62,0-0.76-0.25-0.76-0.74v-2.59h-0.55v-0.46h0.55V99.36z"/>
		<path d="M143.36,101.6c0-0.36-0.15-0.78-0.59-0.78c-0.36,0-0.74,0.18-0.74,1.55c0,0.48,0.01,1.47,0.71,1.47
			c0.5,0,0.62-0.53,0.62-0.94h0.59c0,0.59-0.29,1.4-1.23,1.4c-0.92,0-1.3-0.63-1.3-1.93c0-0.93,0.18-2.02,1.34-2.02
			c1.03,0,1.2,0.81,1.2,1.24H143.36z"/>
		<path d="M144.46,101.59c0-0.85,0.36-1.23,1.26-1.23c1.14,0,1.14,0.69,1.14,1.08v2.09c0,0.16-0.01,0.3,0.18,0.3
			c0.08,0,0.11-0.01,0.14-0.04v0.42c-0.05,0.01-0.2,0.04-0.34,0.04c-0.22,0-0.51,0-0.53-0.48h-0.01c-0.19,0.34-0.55,0.54-0.9,0.54
			c-0.7,0-1.02-0.42-1.02-1.09c0-0.53,0.22-0.89,0.71-1.04l0.79-0.24c0.43-0.13,0.43-0.26,0.43-0.57c0-0.36-0.21-0.55-0.6-0.55
			c-0.64,0-0.64,0.59-0.64,0.74v0.04H144.46z M146.28,102.17c-0.23,0.23-0.74,0.27-1,0.44c-0.19,0.12-0.29,0.27-0.29,0.59
			c0,0.39,0.13,0.64,0.53,0.64c0.39,0,0.76-0.32,0.76-0.71V102.17z"/>
		<path d="M147.66,100.46h0.59v0.56h0.01c0.17-0.36,0.39-0.66,0.81-0.66c0.12,0,0.2,0.01,0.26,0.04v0.57
			c-0.06-0.01-0.13-0.03-0.32-0.03c-0.29,0-0.77,0.27-0.77,0.89v2.37h-0.59V100.46z"/>
		<path d="M152.21,104.21h-0.56v-0.46h-0.01c-0.08,0.28-0.41,0.56-0.81,0.56c-0.89,0-1.23-0.8-1.23-1.97c0-0.78,0.12-1.98,1.18-1.98
			c0.34,0,0.69,0.2,0.83,0.53h0.01v-1.67h0.59V104.21z M150.9,103.8c0.64,0,0.76-0.61,0.76-1.47c0-0.73-0.12-1.47-0.76-1.47
			c-0.54,0-0.69,0.57-0.69,1.47S150.36,103.8,150.9,103.8z"/>
		<path d="M154.59,101.56c0-0.48-0.13-0.74-0.55-0.74c-0.19,0-0.61,0.05-0.61,0.57c0,0.45,0.46,0.53,0.92,0.68
			c0.45,0.15,0.92,0.31,0.92,1.06c0,0.78-0.51,1.18-1.21,1.18c-1.27,0-1.29-0.95-1.29-1.33h0.59c0,0.46,0.12,0.87,0.7,0.87
			c0.19,0,0.62-0.09,0.62-0.62c0-0.5-0.47-0.62-0.92-0.76c-0.46-0.15-0.92-0.29-0.92-1.06c0-0.7,0.55-1.04,1.2-1.04
			c1.09,0,1.14,0.76,1.14,1.2H154.59z"/>
	</g>
	<line class="st30" x1="135.75" y1="105.27" x2="141.35" y2="123.89"/>
	<line class="st0" x1="11.86" y1="123.68" x2="16.31" y2="123.68"/>
	<line class="st0" x1="11.86" y1="99.67" x2="16.31" y2="99.67"/>
	<line class="st0" x1="11.86" y1="75.66" x2="16.31" y2="75.66"/>
	<line class="st0" x1="11.86" y1="51.65" x2="16.31" y2="51.65"/>
	<line class="st0" x1="11.86" y1="27.63" x2="16.4" y2="27.63"/>
	<line class="st0" x1="11.86" y1="3.62" x2="16.31" y2="3.62"/>
	<line class="st0" x1="35.25" y1="123.89" x2="35.25" y2="120.87"/>
	<line class="st0" x1="14.95" y1="123.89" x2="14.95" y2="120.87"/>
	<line class="st0" x1="55.54" y1="123.89" x2="55.54" y2="120.87"/>
	<line class="st0" x1="75.84" y1="123.89" x2="75.84" y2="120.87"/>
	<line class="st0" x1="96.13" y1="123.89" x2="96.13" y2="120.87"/>
	<line class="st0" x1="116.43" y1="123.89" x2="116.43" y2="120.87"/>
	<line class="st0" x1="136.73" y1="123.89" x2="136.73" y2="120.87"/>
	<line class="st0" x1="157.02" y1="123.89" x2="157.02" y2="120.87"/>
	<line class="st0" x1="177.32" y1="123.89" x2="177.32" y2="120.87"/>
	<line class="st0" x1="197.61" y1="123.89" x2="197.61" y2="120.87"/>
	<line class="st0" x1="217.91" y1="123.89" x2="217.91" y2="120.87"/>
	<line class="st0" x1="238.2" y1="123.89" x2="238.2" y2="120.87"/>
	<line class="st0" x1="258.5" y1="123.89" x2="258.5" y2="120.87"/>
	<line class="st0" x1="278.8" y1="123.89" x2="278.8" y2="120.87"/>
	<line class="st0" x1="299.09" y1="123.89" x2="299.09" y2="120.87"/>
	<line class="st0" x1="319.39" y1="123.89" x2="319.39" y2="120.87"/>
	<line class="st0" x1="339.68" y1="123.89" x2="339.68" y2="120.87"/>
	<line class="st0" x1="359.98" y1="123.89" x2="359.98" y2="120.87"/>
	<line class="st0" x1="380.27" y1="123.89" x2="380.27" y2="120.87"/>
	<line class="st0" x1="11.53" y1="123.89" x2="379.92" y2="123.89"/>
	<g>
		<path d="M4.39,123.46c0-1.25,0.08-2.91,1.62-2.91s1.62,1.53,1.62,2.91c0,1.19-0.08,2.86-1.62,2.86S4.39,124.8,4.39,123.46z
			 M6,125.79c0.86,0,0.91-1.14,0.91-2.33c0-1.25-0.05-2.38-0.91-2.38s-0.91,1.13-0.91,2.38C5.09,124.65,5.14,125.79,6,125.79z"/>
	</g>
	<g>
		<path d="M1.01,96.97c0.71-0.04,1.36-0.12,1.4-0.93h0.48v5.66H2.21v-4.25H1.01V96.97z"/>
		<path d="M4.39,98.95c0-1.25,0.08-2.91,1.62-2.91s1.62,1.53,1.62,2.91c0,1.19-0.08,2.86-1.62,2.86S4.39,100.29,4.39,98.95z
			 M6,101.29c0.86,0,0.91-1.14,0.91-2.33c0-1.25-0.05-2.38-0.91-2.38s-0.91,1.13-0.91,2.38C5.09,100.14,5.14,101.29,6,101.29z"/>
	</g>
	<g>
		<path d="M3.58,80.37H0.41c0-1.06,0.59-1.78,1.22-2.32l0.46-0.39c0.46-0.39,0.75-0.74,0.75-1.36c0-0.48-0.22-1.02-0.82-1.02
			c-0.87,0-0.9,0.9-0.9,1.22h-0.7c0-1.06,0.45-1.8,1.61-1.8c1.31,0,1.52,1.02,1.52,1.51c0,0.86-0.36,1.33-0.99,1.86l-0.8,0.7
			c-0.31,0.26-0.53,0.59-0.62,0.97h2.43V80.37z"/>
		<path d="M4.39,77.62c0-1.25,0.08-2.91,1.62-2.91s1.62,1.53,1.62,2.91c0,1.19-0.08,2.86-1.62,2.86S4.39,78.96,4.39,77.62z M6,79.95
			c0.86,0,0.91-1.14,0.91-2.33c0-1.25-0.05-2.38-0.91-2.38s-0.91,1.13-0.91,2.38C5.09,78.81,5.14,79.95,6,79.95z"/>
	</g>
	<g>
		<path d="M1.48,52h0.35c0.6,0,0.86-0.43,0.86-1c0-0.51-0.19-0.94-0.74-0.94c-0.74,0-0.82,0.7-0.82,1.1h-0.7
			c0-0.96,0.46-1.63,1.5-1.63c1.18,0,1.46,0.83,1.46,1.47c0,0.58-0.28,1.06-0.88,1.21v0.02c0.64,0.13,1.05,0.53,1.05,1.32
			c0,1.03-0.52,1.75-1.61,1.75c-1.52,0-1.61-1.32-1.61-1.58v-0.07h0.7c0,0.52,0.26,1.12,0.9,1.12c0.42,0,0.9-0.21,0.9-1.17
			c0-0.67-0.32-1.08-1.02-1.08H1.48V52z"/>
		<path d="M4.39,52.44c0-1.25,0.08-2.91,1.62-2.91s1.62,1.53,1.62,2.91c0,1.19-0.08,2.86-1.62,2.86S4.39,53.79,4.39,52.44z M6,54.78
			c0.86,0,0.91-1.14,0.91-2.33c0-1.25-0.05-2.38-0.91-2.38s-0.91,1.13-0.91,2.38C5.09,53.64,5.14,54.78,6,54.78z"/>
	</g>
	<g>
		<path d="M2.29,25.7h0.67v3.72H3.6v0.58H2.96v1.37H2.29v-1.37H0.24v-0.63L2.29,25.7z M0.85,29.42h1.44V26.8H2.27L0.85,29.42z"/>
		<path d="M4.39,28.61c0-1.25,0.08-2.91,1.62-2.91s1.62,1.53,1.62,2.91c0,1.19-0.08,2.86-1.62,2.86S4.39,29.95,4.39,28.61z M6,30.94
			c0.86,0,0.91-1.14,0.91-2.33c0-1.25-0.05-2.38-0.91-2.38s-0.91,1.13-0.91,2.38C5.09,29.8,5.14,30.94,6,30.94z"/>
	</g>
	<g>
		<path d="M0.81,1.31h2.53v0.62H1.35L1.12,3.57l0.02,0.02c0.23-0.28,0.61-0.42,0.99-0.42c0.86,0,1.42,0.67,1.42,1.86
			c0,1.06-0.46,1.94-1.65,1.94c-1.34,0-1.55-1.11-1.55-1.57h0.7c0,0.3,0.11,1.04,0.86,1.04c0.8,0,0.93-0.9,0.93-1.47
			c0-0.62-0.23-1.28-0.94-1.28c-0.49,0-0.8,0.42-0.8,0.55L0.5,4.21L0.81,1.31z"/>
		<path d="M4.39,4.11c0-1.25,0.08-2.91,1.62-2.91s1.62,1.53,1.62,2.91C7.62,5.3,7.54,6.97,6,6.97S4.39,5.45,4.39,4.11z M6,6.44
			c0.86,0,0.91-1.14,0.91-2.33c0-1.25-0.05-2.38-0.91-2.38S5.09,2.86,5.09,4.11C5.09,5.3,5.14,6.44,6,6.44z"/>
	</g>
	<g>
	</g>
	<g>
	</g>
	<g>
	</g>
	<g>
	</g>
	<g>
	</g>
	<g>
	</g>
</g>
</svg>
